<svg xmlns="http://www.w3.org/2000/svg" xmlns:xlink="http://www.w3.org/1999/xlink" width="80" height="80"><defs><linearGradient xlink:href="#b" id="v" gradientUnits="userSpaceOnUse" x1="72.731" y1="183.631" x2="688.924" y2="868.514" gradientTransform="matrix(.11236 0 0 .11236 -4.483 926.049)"/><linearGradient id="b"><stop style="stop-color:#dec429;stop-opacity:1" offset="0"/><stop style="stop-color:#be9d2e;stop-opacity:1" offset="1"/></linearGradient><linearGradient xlink:href="#a" id="c" x1="-42.767" y1="258.382" x2="506.427" y2="258.382" gradientUnits="userSpaceOnUse"/><linearGradient xlink:href="#b" id="d" x1="124.902" y1="325.557" x2="168.042" y2="325.557" gradientUnits="userSpaceOnUse"/><linearGradient xlink:href="#b" id="P" x1="72.731" y1="183.631" x2="688.924" y2="868.514" gradientUnits="userSpaceOnUse" gradientTransform="matrix(.11234 0 0 .11234 -6.61 945.049)"/><linearGradient xlink:href="#b" id="f" gradientUnits="userSpaceOnUse" x1="72.731" y1="183.631" x2="688.924" y2="868.514" gradientTransform="matrix(.11236 0 0 .11236 -4.483 926.049)"/><linearGradient xlink:href="#b" id="g" gradientUnits="userSpaceOnUse" x1="72.731" y1="183.631" x2="688.924" y2="868.514" gradientTransform="matrix(.11236 0 0 .11236 -4.483 926.049)"/><linearGradient xlink:href="#b" id="h" gradientUnits="userSpaceOnUse" x1="72.731" y1="183.631" x2="688.924" y2="868.514" gradientTransform="matrix(.11236 0 0 .11236 -4.483 926.049)"/><linearGradient xlink:href="#b" id="i" gradientUnits="userSpaceOnUse" x1="72.731" y1="183.631" x2="688.924" y2="868.514" gradientTransform="matrix(.11236 0 0 .11236 -4.483 926.049)"/><linearGradient xlink:href="#b" id="j" gradientUnits="userSpaceOnUse" x1="72.731" y1="183.631" x2="688.924" y2="868.514" gradientTransform="matrix(.11236 0 0 .11236 -4.483 926.049)"/><linearGradient xlink:href="#b" id="k" gradientUnits="userSpaceOnUse" x1="72.731" y1="183.631" x2="688.924" y2="868.514" gradientTransform="matrix(.11236 0 0 .11236 -4.483 926.049)"/><linearGradient xlink:href="#b" id="l" gradientUnits="userSpaceOnUse" x1="72.731" y1="183.631" x2="688.924" y2="868.514" gradientTransform="matrix(.11236 0 0 .11236 -4.483 926.049)"/><linearGradient xlink:href="#b" id="m" gradientUnits="userSpaceOnUse" x1="72.731" y1="183.631" x2="688.924" y2="868.514" gradientTransform="matrix(.11236 0 0 .11236 -4.483 926.049)"/><linearGradient xlink:href="#b" id="n" gradientUnits="userSpaceOnUse" x1="72.731" y1="183.631" x2="688.924" y2="868.514" gradientTransform="matrix(.11236 0 0 .11236 -4.483 926.049)"/><linearGradient xlink:href="#b" id="o" gradientUnits="userSpaceOnUse" x1="72.731" y1="183.631" x2="688.924" y2="868.514" gradientTransform="matrix(.11236 0 0 .11236 -4.483 926.049)"/><linearGradient xlink:href="#b" id="p" gradientUnits="userSpaceOnUse" x1="72.731" y1="183.631" x2="688.924" y2="868.514" gradientTransform="matrix(.11236 0 0 .11236 -4.483 926.049)"/><linearGradient xlink:href="#b" id="q" gradientUnits="userSpaceOnUse" x1="72.731" y1="183.631" x2="688.924" y2="868.514" gradientTransform="matrix(.11236 0 0 .11236 -4.483 926.049)"/><linearGradient xlink:href="#b" id="r" gradientUnits="userSpaceOnUse" x1="72.731" y1="183.631" x2="688.924" y2="868.514" gradientTransform="matrix(.11236 0 0 .11236 -4.483 926.049)"/><linearGradient xlink:href="#b" id="s" gradientUnits="userSpaceOnUse" x1="72.731" y1="183.631" x2="688.924" y2="868.514" gradientTransform="matrix(.11236 0 0 .11236 -4.483 926.049)"/><linearGradient xlink:href="#b" id="t" gradientUnits="userSpaceOnUse" x1="72.731" y1="183.631" x2="688.924" y2="868.514" gradientTransform="matrix(.11236 0 0 .11236 -4.483 926.049)"/><linearGradient xlink:href="#b" id="u" gradientUnits="userSpaceOnUse" x1="72.731" y1="183.631" x2="688.924" y2="868.514" gradientTransform="matrix(.11236 0 0 .11236 -4.483 926.049)"/><linearGradient id="a"><stop style="stop-color:#dec429;stop-opacity:1" offset="0"/><stop style="stop-color:#be9d2e;stop-opacity:1" offset="1"/></linearGradient><linearGradient xlink:href="#b" id="w" gradientUnits="userSpaceOnUse" x1="72.731" y1="183.631" x2="688.924" y2="868.514" gradientTransform="matrix(.11236 0 0 .11236 -4.483 926.049)"/><linearGradient xlink:href="#b" id="x" gradientUnits="userSpaceOnUse" x1="72.731" y1="183.631" x2="688.924" y2="868.514" gradientTransform="matrix(.11236 0 0 .11236 -4.483 926.049)"/><linearGradient xlink:href="#b" id="y" gradientUnits="userSpaceOnUse" x1="72.731" y1="183.631" x2="688.924" y2="868.514" gradientTransform="matrix(.11236 0 0 .11236 -4.483 926.049)"/><linearGradient xlink:href="#b" id="z" gradientUnits="userSpaceOnUse" x1="72.731" y1="183.631" x2="688.924" y2="868.514" gradientTransform="matrix(.11236 0 0 .11236 -4.483 926.049)"/><linearGradient xlink:href="#b" id="A" gradientUnits="userSpaceOnUse" x1="72.731" y1="183.631" x2="688.924" y2="868.514" gradientTransform="matrix(.11236 0 0 .11236 -4.483 926.049)"/><linearGradient xlink:href="#b" id="B" gradientUnits="userSpaceOnUse" x1="72.731" y1="183.631" x2="688.924" y2="868.514" gradientTransform="matrix(.11236 0 0 .11236 -4.483 926.049)"/><linearGradient xlink:href="#b" id="C" gradientUnits="userSpaceOnUse" x1="72.731" y1="183.631" x2="688.924" y2="868.514" gradientTransform="matrix(.11236 0 0 .11236 -4.483 926.049)"/><linearGradient xlink:href="#b" id="D" gradientUnits="userSpaceOnUse" x1="72.731" y1="183.631" x2="688.924" y2="868.514" gradientTransform="matrix(.11236 0 0 .11236 -4.483 926.049)"/><linearGradient xlink:href="#b" id="E" gradientUnits="userSpaceOnUse" x1="72.731" y1="183.631" x2="688.924" y2="868.514" gradientTransform="matrix(.11236 0 0 .11236 -4.483 926.049)"/><linearGradient xlink:href="#b" id="F" gradientUnits="userSpaceOnUse" x1="72.731" y1="183.631" x2="688.924" y2="868.514" gradientTransform="matrix(.11236 0 0 .11236 -4.483 926.049)"/><linearGradient xlink:href="#b" id="G" gradientUnits="userSpaceOnUse" x1="72.731" y1="183.631" x2="688.924" y2="868.514" gradientTransform="matrix(.11236 0 0 .11236 -4.483 926.049)"/><linearGradient xlink:href="#b" id="H" gradientUnits="userSpaceOnUse" x1="72.731" y1="183.631" x2="688.924" y2="868.514" gradientTransform="matrix(.11236 0 0 .11236 -4.483 926.049)"/><linearGradient xlink:href="#b" id="I" gradientUnits="userSpaceOnUse" x1="72.731" y1="183.631" x2="688.924" y2="868.514" gradientTransform="matrix(.11236 0 0 .11236 -4.483 926.049)"/><linearGradient xlink:href="#b" id="J" gradientUnits="userSpaceOnUse" x1="72.731" y1="183.631" x2="688.924" y2="868.514" gradientTransform="matrix(.11236 0 0 .11236 -4.483 926.049)"/><linearGradient xlink:href="#b" id="K" gradientUnits="userSpaceOnUse" x1="72.731" y1="183.631" x2="688.924" y2="868.514" gradientTransform="matrix(.11236 0 0 .11236 -4.483 926.049)"/><linearGradient xlink:href="#b" id="L" gradientUnits="userSpaceOnUse" x1="72.731" y1="183.631" x2="688.924" y2="868.514" gradientTransform="matrix(.11236 0 0 .11236 -4.483 926.049)"/><linearGradient xlink:href="#b" id="M" gradientUnits="userSpaceOnUse" x1="72.731" y1="183.631" x2="688.924" y2="868.514" gradientTransform="matrix(.11236 0 0 .11236 -4.483 926.049)"/><linearGradient xlink:href="#b" id="N" gradientUnits="userSpaceOnUse" x1="72.731" y1="183.631" x2="688.924" y2="868.514" gradientTransform="matrix(.11236 0 0 .11236 -4.483 926.049)"/><linearGradient xlink:href="#b" id="O" gradientUnits="userSpaceOnUse" x1="72.731" y1="183.631" x2="688.924" y2="868.514" gradientTransform="matrix(.11236 0 0 .11236 -4.483 926.049)"/><linearGradient xlink:href="#b" id="e" gradientUnits="userSpaceOnUse" x1="72.731" y1="183.631" x2="688.924" y2="868.514"/></defs><path style="fill:#000;fill-opacity:1;stroke:url(#c);stroke-width:19.30958366;stroke-linecap:butt;stroke-linejoin:miter;stroke-miterlimit:4;stroke-opacity:1;stroke-dasharray:none" d="M496.772 258.382a264.942 265.727 0 1 1-529.884 0 264.942 265.727 0 1 1 529.884 0z" transform="matrix(.07905 .12234 -.12198 .07882 53.191 -8.728)"/><path style="color:#000;fill:none;stroke:url(#d);stroke-width:1.12302268;stroke-linecap:butt;stroke-linejoin:miter;stroke-miterlimit:4;stroke-opacity:1;stroke-dasharray:1.12302264,1.12302264;stroke-dashoffset:0;marker:none;visibility:visible;display:inline;overflow:visible;enable-background:accumulate" d="M167.48 325.557a21.008 43.942 0 1 1 0-.015" transform="matrix(1.09554 .94487 -.45173 .52377 26.6 -268.916)"/><g style="font-size:44px;font-style:normal;font-weight:700;text-align:start;line-height:125%;letter-spacing:0;word-spacing:0;text-anchor:start;fill:url(#e);fill-opacity:1;stroke:url(#linearGradient4224);stroke-opacity:1;font-family:Sans;-inkscape-font-specification:Sans Bold" transform="translate(5.05 -963.27)"><path d="M28.346 1036.733c-.087.35-.212.63-.375.842a1.667 1.667 0 0 1-.437.392c-.17.105-.343.172-.52.199a1.94 1.94 0 0 1-.775-.048c-.506-.126-.872-.383-1.098-.772-.226-.39-.27-.864-.131-1.423.137-.554.396-.95.775-1.19.379-.238.82-.295 1.325-.17.51.127.878.383 1.103.77.224.386.268.853.133 1.4zm-.72-.154c.096-.389.08-.706-.05-.951a.904.904 0 0 0-.61-.47.896.896 0 0 0-.755.13c-.227.155-.39.431-.488.83-.098.393-.084.708.04.945.125.236.33.39.616.46s.54.03.764-.122c.224-.153.385-.427.482-.822z" style="fill:url(#f);stroke:url(#linearGradient4080);stroke-width:.1123599"/><path d="m23.613 1033.572-1.37 3.263-1.057-.444c-.4-.168-.655-.294-.763-.378a.928.928 0 0 1-.336-.516c-.057-.217-.031-.455.078-.715.084-.2.19-.354.32-.46a.972.972 0 0 1 .413-.205 1.06 1.06 0 0 1 .407-.012c.17.035.404.115.703.24l.43.18.516-1.23zm-1.797 2.434.389-.926-.361-.151c-.26-.11-.44-.165-.542-.167a.497.497 0 0 0-.274.074.476.476 0 0 0-.18.222.457.457 0 0 0-.02.338.494.494 0 0 0 .205.256c.072.048.227.121.465.22z" style="fill:url(#g);stroke:url(#linearGradient4084);stroke-width:.1123599"/><path d="m19.365 1031.623-1.828 3.03-2.247-1.355.31-.513 1.634.987.405-.672-1.52-.918.307-.51 1.521.918.498-.825-1.693-1.021.308-.511z" style="fill:url(#h);stroke:url(#linearGradient4088);stroke-width:.1123599"/><path d="m15.435 1029.08-2.257 2.726-.536-.443.392-2.744-1.507 1.82-.512-.423 2.258-2.726.552.457-.373 2.688 1.472-1.778z" style="fill:url(#i);stroke:url(#linearGradient4092);stroke-width:.1123599"/><path d="m10.797 1024.8-2.742 2.238-.44-.539.916-2.616-1.831 1.494-.42-.514 2.742-2.238.453.556-.886 2.564 1.788-1.459z" style="fill:url(#j);stroke:url(#linearGradient4096);stroke-width:.1123599"/><path d="m4.753 1022.675-.362-.616 1.652-.972c.262-.154.428-.261.496-.322.11-.1.173-.222.19-.365.018-.144-.024-.302-.125-.474-.103-.175-.216-.286-.34-.332a.513.513 0 0 0-.358-.01 3.968 3.968 0 0 0-.534.277l-1.687.992-.362-.616 1.602-.942c.366-.215.635-.35.805-.406a.996.996 0 0 1 .492-.041c.156.028.31.099.46.213.15.113.295.29.437.532.171.292.268.532.289.722a1.1 1.1 0 0 1-.053.511.976.976 0 0 1-.236.372c-.151.143-.398.315-.739.515z" style="fill:url(#k);stroke:url(#linearGradient4100);stroke-width:.1123599"/><path d="m5.426 1016.55-3.3 1.277-.387-.998 2.02-1.47-2.48.28-.387-1 3.3-1.277.24.62-2.598 1.004 2.852-.35.248.642-2.346 1.658 2.598-1.005z" style="fill:url(#l);stroke:url(#linearGradient4104);stroke-width:.1123599"/><path d="m3.656 1011.365-3.437.843-.17-.694 3.437-.842z" style="fill:url(#m);stroke:url(#linearGradient4108);stroke-width:.1123599"/><path d="m1.942 1008.988-.154-.681c.226-.07.386-.176.478-.317.093-.14.126-.319.099-.534-.029-.228-.099-.394-.21-.498a.435.435 0 0 0-.36-.131.325.325 0 0 0-.204.1.589.589 0 0 0-.12.274 8.837 8.837 0 0 0-.082.587c-.046.392-.128.673-.246.844a.92.92 0 0 1-.666.412.938.938 0 0 1-.932-.483 1.77 1.77 0 0 1-.209-.676c-.055-.44 0-.784.165-1.031.165-.247.408-.397.73-.448l.12.705c-.177.053-.299.134-.365.244-.067.11-.087.264-.062.464.026.206.088.362.187.468a.257.257 0 0 0 .233.085.275.275 0 0 0 .2-.132c.063-.1.114-.326.152-.681.039-.355.09-.621.157-.797a.994.994 0 0 1 .308-.433c.14-.112.32-.183.542-.21.201-.025.396.01.586.097.19.09.34.23.451.425.111.193.186.443.224.748.056.443-.004.797-.179 1.06-.175.265-.456.444-.843.54z" style="fill:url(#n);stroke:url(#linearGradient4112);stroke-width:.1123599"/><path d="m2.61 1004.021-3.536-.11.033-1.07 2.433-.566-2.393-.71.034-1.071 3.537.11-.021.664-2.784-.087 2.762.79-.021.687-2.807.612 2.785.087z" style="fill:url(#o);stroke:url(#linearGradient4116);stroke-width:.1123599"/><path d="m3.581 995.397-.148.763-.848.15-.27 1.388.733.44-.145.745-3.21-2.03.144-.741zm-1.626 1.024-1.382.228 1.198.72z" style="fill:url(#p);stroke:url(#linearGradient4120);stroke-width:.1123599"/><path d="m4.348 992.962-2.774-.974-.348.99-.565-.198.933-2.654.565.199-.348.988 2.774.975z" style="fill:url(#q);stroke:url(#linearGradient4124);stroke-width:.1123599"/><path d="M7.787 982.74c-.276-.231-.472-.468-.59-.708a1.666 1.666 0 0 1-.159-.564 1.378 1.378 0 0 1 .052-.556c.07-.228.198-.453.384-.673.336-.399.729-.614 1.178-.645.449-.03.893.14 1.334.511.437.368.679.775.725 1.22.047.446-.097.867-.432 1.265-.34.402-.732.619-1.177.65-.446.03-.884-.136-1.315-.5zm.456-.578c.306.259.598.383.876.375a.904.904 0 0 0 .691-.339.897.897 0 0 0 .217-.735c-.04-.271-.216-.54-.53-.804-.31-.261-.599-.388-.866-.38a.904.904 0 0 0-.685.348.909.909 0 0 0-.228.74c.039.268.214.533.525.795z" style="fill:url(#r);stroke:url(#linearGradient4128);stroke-width:.1123599"/><path d="m12.712 979.888-2.329-2.665.864-.754c.327-.286.552-.46.674-.52a.927.927 0 0 1 .612-.074c.22.044.423.172.608.384.143.164.233.327.271.49a.97.97 0 0 1 .004.461 1.036 1.036 0 0 1-.169.37 4.079 4.079 0 0 1-.525.526l-.35.307.878 1.005zm-1.397-2.684.661.756.294-.257c.213-.185.342-.323.39-.414a.47.47 0 0 0-.067-.538.457.457 0 0 0-.295-.165.494.494 0 0 0-.32.07c-.075.045-.209.151-.403.32z" style="fill:url(#s);stroke:url(#linearGradient4132);stroke-width:.1123599"/><path d="m16.328 976.928-1.92-2.972 2.203-1.424.325.503-1.604 1.036.426.659 1.492-.964.324.5-1.492.965.523.809 1.66-1.073.324.5z" style="fill:url(#t);stroke:url(#linearGradient4136);stroke-width:.1123599"/><path d="m20.337 974.512-1.457-3.225.633-.286 2.293 1.557-.973-2.154.605-.273 1.457 3.225-.653.295-2.25-1.515.95 2.103z" style="fill:url(#u);stroke:url(#linearGradient4140);stroke-width:.1123599"/><path d="m27.55 971.89-.649-3.48.684-.127 1.857 2.057-.434-2.323.653-.122.65 3.48-.706.13-1.825-2.006.423 2.268z" style="fill:url(#v);stroke:url(#linearGradient4144);stroke-width:.1123599"/><path d="m32.314 967.606.714-.023.06 1.916c.01.304.025.5.045.59a.573.573 0 0 0 .23.342c.118.084.276.123.476.117.202-.007.354-.053.454-.139.1-.086.16-.19.176-.31.017-.122.022-.323.013-.603l-.062-1.956.714-.023.059 1.858c.013.425.003.725-.03.902a.997.997 0 0 1-.2.45 1.08 1.08 0 0 1-.406.302c-.172.077-.398.12-.677.129-.338.01-.596-.02-.773-.093a1.1 1.1 0 0 1-.423-.291.975.975 0 0 1-.213-.386c-.053-.201-.085-.5-.098-.895z" style="fill:url(#w);stroke:url(#linearGradient4148);stroke-width:.1123599"/><path d="m37.366 971.13.454-3.51 1.06.138.328 2.476.939-2.313 1.063.138-.454 3.51-.658-.086.357-2.762-1.054 2.672-.682-.088-.338-2.852-.357 2.762z" style="fill:url(#x);stroke:url(#linearGradient4152);stroke-width:.1123599"/><path d="m42.767 972.048.898-3.423.691.182-.898 3.423z" style="fill:url(#y);stroke:url(#linearGradient4156);stroke-width:.1123599"/><path d="m45.674 971.675.673.19c-.046.232-.03.423.05.571.079.149.22.263.422.342.215.084.394.101.538.053a.435.435 0 0 0 .287-.254.322.322 0 0 0 .01-.226.588.588 0 0 0-.184-.236 8.765 8.765 0 0 0-.477-.353c-.322-.227-.53-.434-.624-.619a.92.92 0 0 1-.044-.782.91.91 0 0 1 .327-.415.96.96 0 0 1 .542-.173c.209-.007.44.04.693.138.414.162.69.374.828.638.138.263.154.548.046.854l-.677-.23c.037-.18.024-.327-.04-.437-.065-.111-.191-.203-.379-.276-.193-.076-.36-.095-.5-.059a.258.258 0 0 0-.186.164.272.272 0 0 0 .02.238c.057.104.232.257.526.46.294.203.503.375.626.518a.994.994 0 0 1 .233.477c.032.176.008.368-.073.576a1.042 1.042 0 0 1-.954.663 2.009 2.009 0 0 1-.764-.16c-.417-.163-.7-.384-.847-.664-.149-.28-.172-.612-.072-.998z" style="fill:url(#z);stroke:url(#linearGradient4160);stroke-width:.1123599"/><path d="m49.72 974.634 1.792-3.052.922.541-.669 2.407 1.77-1.76.924.542-1.791 3.052-.573-.336 1.41-2.402-2.016 2.047-.593-.349.807-2.756-1.41 2.402z" style="fill:url(#A);stroke:url(#linearGradient4164);stroke-width:.1123599"/><path d="m56.822 979.62-.598-.495.275-.816-1.089-.904-.738.433-.583-.484 3.32-1.844.582.482zm-.119-1.917.463-1.322-1.206.706z" style="fill:url(#B);stroke:url(#linearGradient4168);stroke-width:.1123599"/><path d="m58.593 981.46 2.182-1.971-.704-.78.445-.4 1.884 2.087-.444.4-.702-.777-2.182 1.97z" style="fill:url(#C);stroke:url(#linearGradient4172);stroke-width:.1123599"/><path d="M66.505 990.69c.341-.117.645-.164.911-.142.197.018.385.07.566.155.18.085.33.195.45.33.16.177.286.403.38.675.168.494.15.94-.054 1.342-.204.4-.58.695-1.124.881-.54.186-1.014.184-1.42-.006-.406-.189-.693-.53-.861-1.021-.171-.498-.155-.946.048-1.344.203-.398.571-.688 1.104-.87zm.262.688c-.38.13-.637.316-.773.558a.905.905 0 0 0-.064.768c.092.27.265.457.518.563.253.107.574.093.962-.04.384-.131.641-.314.773-.547.13-.232.148-.488.053-.767a.908.908 0 0 0-.517-.575c-.25-.105-.567-.092-.952.04z" style="fill:url(#D);stroke:url(#linearGradient4176);stroke-width:.1123599"/><path d="m66.415 996.38 3.484-.618.201 1.129c.076.428.108.71.096.846a.928.928 0 0 1-.252.562c-.15.166-.365.273-.642.323-.214.038-.401.03-.56-.021a.97.97 0 0 1-.397-.235 1.036 1.036 0 0 1-.23-.336 4.079 4.079 0 0 1-.18-.72l-.08-.46-1.315.234zm3.02.19-.989.176.069.385c.049.277.1.46.153.546a.47.47 0 0 0 .495.221.457.457 0 0 0 .294-.167.494.494 0 0 0 .105-.31 3.44 3.44 0 0 0-.067-.51z" style="fill:url(#E);stroke:url(#linearGradient4180);stroke-width:.1123599"/><path d="m67.082 1001.006 3.537-.11.082 2.622-.598.02-.06-1.91-.784.025.055 1.776-.596.019-.055-1.776-.963.03.062 1.976-.596.019z" style="fill:url(#F);stroke:url(#linearGradient4184);stroke-width:.1123599"/><path d="m67.084 1005.687 3.515.41-.08.69-2.516 1.166 2.348.273-.077.66-3.515-.41.083-.712 2.457-1.15-2.292-.267z" style="fill:url(#G);stroke:url(#linearGradient4188);stroke-width:.1123599"/><path d="m65.624 1013.222 3.318 1.232-.242.652-2.72.535 2.216.823-.231.622-3.318-1.232.25-.672 2.66-.534-2.164-.803z" style="fill:url(#H);stroke:url(#linearGradient4192);stroke-width:.1123599"/><path d="m66.847 1019.514-.349.624-1.673-.935a3.97 3.97 0 0 0-.529-.266.571.571 0 0 0-.411.021c-.133.058-.248.174-.345.348-.1.177-.138.33-.115.461.022.13.08.234.175.311.096.077.265.184.51.321l1.709.955-.349.624-1.622-.907c-.371-.207-.624-.37-.758-.49a.996.996 0 0 1-.284-.403 1.08 1.08 0 0 1-.048-.504c.022-.187.101-.402.238-.647.165-.295.324-.5.477-.614.154-.114.31-.185.468-.213a.979.979 0 0 1 .44.017c.2.058.472.184.818.377z" style="fill:url(#I);stroke:url(#linearGradient4196);stroke-width:.1123599"/><path d="m61.22 1022.027 2.772 2.201-.665.838-2.29-.999 1.495 1.999-.666.839-2.771-2.201.413-.52 2.18 1.733-1.743-2.283.428-.539 2.616 1.185-2.181-1.733z" style="fill:url(#J);stroke:url(#linearGradient4200);stroke-width:.1123599"/><path d="m57.646 1026.178 2.47 2.535-.512.499-2.47-2.535z" style="fill:url(#K);stroke:url(#linearGradient4204);stroke-width:.1123599"/><path d="m56.469 1028.862-.509.478c-.176-.159-.348-.243-.516-.25-.168-.01-.338.053-.51.186-.182.14-.29.285-.322.434a.435.435 0 0 0 .07.377.324.324 0 0 0 .19.124c.074.017.173 0 .296-.036a8.64 8.64 0 0 0 .547-.228c.361-.159.645-.23.852-.216a.923.923 0 0 1 .882.858.96.96 0 0 1-.13.554c-.102.182-.261.357-.476.523-.352.272-.676.4-.972.383-.297-.017-.55-.15-.757-.4l.546-.463c.135.125.267.189.396.19.128 0 .272-.06.43-.182.165-.127.268-.26.308-.4a.258.258 0 0 0-.044-.243.27.27 0 0 0-.216-.105c-.117 0-.339.067-.664.215-.325.147-.58.237-.766.27a.996.996 0 0 1-.53-.045 1.054 1.054 0 0 1-.456-.36 1.043 1.043 0 0 1-.078-1.158c.11-.194.287-.386.53-.574.355-.273.69-.402 1.006-.385.316.017.614.168.893.453z" style="fill:url(#L);stroke:url(#linearGradient4208);stroke-width:.1123599"/><path d="m51.851 1030.81 1.7 3.105-.939.513-1.722-1.809.602 2.423-.94.514-1.7-3.104.583-.32 1.338 2.445-.722-2.781.604-.33 1.951 2.107-1.337-2.443z" style="fill:url(#M);stroke:url(#linearGradient4212);stroke-width:.1123599"/><path d="m43.924 1034.341.733-.258.559.656 1.334-.469.009-.855.715-.252-.127 3.796-.712.25zm1.706.885.895 1.077.016-1.398z" style="fill:url(#N);stroke:url(#linearGradient4216);stroke-width:.1123599"/><path d="m41.436 1034.91.561 2.886 1.031-.2.115.587-2.76.538-.115-.588 1.028-.2-.562-2.886z" style="fill:url(#O);stroke:url(#linearGradient4220);stroke-width:.1123599"/></g><path style="color:#000;fill:none;stroke:none;stroke-width:1px;marker:none;visibility:visible;display:inline;overflow:visible;enable-background:accumulate" d="M370.564 828.047C196.612 825.702 57.581 688.86 60.031 522.403c2.45-166.458 145.452-299.498 319.405-297.154 173.952 2.345 312.983 139.186 310.533 305.644-2.45 166.452-145.443 299.49-319.39 297.154" transform="matrix(.91104 0 0 .95206 13.858 -776.902)"/><path style="fill:url(#P);fill-opacity:1;stroke:none" d="M21.711 1025.87a.435.435 0 0 1-.18-.314c0-.256.876-1.23 1.384-1.538.121-.073.24-.195.264-.27.023-.074.17-.196.327-.27.157-.074.263-.156.237-.182-.026-.026.042-.106.15-.177.11-.072.383-.374.61-.673.225-.298.489-.58.585-.625.096-.045.311-.277.478-.517.168-.24.336-.435.374-.435.057 0 1.058-1.107 1.27-1.404.265-.37.809-1.25.893-1.445.057-.132.137-.601.177-1.043.085-.95.105-24.243.023-28.66-.03-1.686-.085-3.112-.12-3.169-.05-.08-.22-.027-.73.225-.367.18-.762.351-.879.379l-.212.05-.029 15.909-.028 15.908-.263.455c-.224.388-.45.632-.95 1.026-.049.039-.266.147-.481.24-.216.095-.555.26-.753.369-.575.314-1.734.873-3.731 1.798-.398.184-.795.375-.883.425-.088.05-.341.189-.562.308-.22.12-.616.348-.878.507-.262.159-.51.289-.55.289-.04 0-.18.09-.312.2-.13.11-.288.2-.348.2s-.146.064-.19.141c-.067.118-.106.125-.241.042-.102-.063-.18-.069-.21-.019-.03.047-.127.023-.242-.062-.16-.116-.194-.212-.196-.544-.002-.283.04-.442.138-.533.077-.072.285-.331.461-.577.177-.246.381-.467.455-.493.267-.093 2.403-2.304 2.51-2.6.163-.446.286-1.608.212-1.993a2.197 2.197 0 0 1-.002-.682c.035-.188.065-6.516.068-14.063l.005-13.721-.206-.233c-.213-.24-.842-.445-1.376-.448-.2 0-.261-.036-.261-.15 0-.243.24-.65.468-.791.118-.073.25-.172.294-.222.19-.212.813-.448 2.849-1.082.595-.186 1.516-.475 2.046-.644a20.19 20.19 0 0 1 1.244-.363c.154-.032.316-.086.36-.121.045-.035.388-.16.763-.276.375-.116 1.133-.353 1.685-.526.552-.173 1.382-.428 1.846-.568.463-.139 1.293-.394 1.845-.566.552-.172 1.202-.37 1.444-.44.243-.069.504-.158.581-.198a.642.642 0 0 1 .226-.072c.047 0 .274-.085.502-.19.23-.103.554-.213.721-.244.307-.057 1.402-.397 1.702-.53.088-.038.552-.2 1.03-.36.479-.16.966-.33 1.084-.378l.494-.2c.154-.061.343-.146.42-.188a.645.645 0 0 1 .25-.077c.236 0 3.475-1.556 3.943-1.895.406-.293 1.302-.673 1.588-.673.364 0 .923.382 1.328.905.307.397 1.514 1.608 2.661 2.67.287.265.903.882 1.37 1.37.466.49.881.904.922.922.042.017.181.187.31.377.13.19.3.38.378.422.079.043.31.311.514.597.205.287.402.521.438.521.06 0 .307.31.642.805.066.098.157.218.202.268.229.253.68.835.68.878 0 .106.43.674.727.959.172.166.407.5.521.742.115.242.361.63.548.861.472.586.853 1.17.853 1.309 0 .064.03.116.068.116.037 0 .124.135.192.3.37.892.496 1.215.59 1.505.056.177.212.625.345.995.134.37.225.705.201.743-.023.038.03.204.119.369.234.437.373 1.757.356 3.39-.018 1.839-.083 2.582-.237 2.7-.1.078-.103.122-.019.257.078.124.08.206.01.348-.05.102-.108.312-.128.466-.02.155-.097.588-.17.963-.072.375-.145.78-.162.9-.056.412-.098.53-.517 1.447-.136.299-.247.576-.247.617 0 .04-.047.122-.104.18-.056.059-.167.25-.245.427-.216.485-.465.948-.586 1.09-.06.07-.108.162-.108.205 0 .223-1.488 2.23-2.167 2.922a11 11 0 0 0-.562.632c-.51.628-2.12 2.255-2.487 2.514-.199.14-.451.335-.562.433-.287.254-.78.628-1.243.943-.221.15-.587.43-.814.622-.226.191-.523.437-.66.546a1.307 1.307 0 0 0-.339.42c-.081.198-.07.243.098.387.104.09.334.239.51.332.38.2 1.01.623 1.124.752.044.05.368.323.72.606.351.282.922.758 1.269 1.056l.63.542h.591c.326 0 .615-.037.643-.082.028-.045.256-.19.506-.323.742-.393 1.168-.638 1.215-.7.144-.193.86-.602 1.11-.635.357-.047.723.08.795.275.029.078.074.16.1.181.117.098.234.479.162.524-.043.026-.078.136-.078.245 0 .22-.165.34-1.103.807-.32.159-.582.317-.582.35 0 .033-.063.082-.14.108-.183.06-.716.366-1.036.594-.139.1-.283.183-.32.186-.038 0-.23.13-.43.283a3.67 3.67 0 0 1-.581.374c-.122.053-.22.123-.22.158 0 .034-.052.063-.115.063-.062 0-.125.027-.14.06-.015.034-.234.186-.488.339-.254.152-.462.305-.462.34 0 .035-.038.064-.084.064-.047 0-.254.074-.462.165-.207.09-.449.192-.537.226-.088.034-.395.172-.682.307-.852.4-1.137.477-2.385.642-.33.044-1.883-.168-2.253-.307-.279-.105-1.013-.717-1.225-1.021-.288-.414-.943-1.055-1.077-1.055-.067 0-.121-.03-.121-.068 0-.07-.372-.239-.92-.415-.421-.135-2.2-.136-2.526 0-.322.134-1.272.076-1.373-.082-.04-.064-.074-.238-.075-.387 0-.225.075-.344.448-.702.246-.237.476-.431.51-.431.035 0 .185-.108.334-.24.15-.131.314-.24.365-.24.052-.001.106-.028.12-.062.032-.071.052-.085 1.445-1.018a32.174 32.174 0 0 0 1.11-.762c.086-.098.811-.567.875-.567.038 0 .112-.053.166-.118.054-.065.423-.345.82-.622.398-.277.766-.54.819-.584.052-.044.154-.117.226-.16.418-.258 1.014-.692 1.112-.811.063-.076.35-.29.636-.476.287-.186.738-.53 1.003-.764.265-.234.743-.619 1.063-.856.32-.236.582-.46.582-.495 0-.036.21-.279.468-.539.65-.657 1.81-2.183 2.05-2.695.109-.234.327-.607.484-.827.34-.48.69-1.189.69-1.402 0-.084.038-.177.084-.206.047-.028.078-.13.069-.226a.778.778 0 0 1 .03-.293c.025-.067.065-.247.088-.401.023-.155.1-.552.17-.883.07-.33.122-.647.115-.702-.017-.138-.008-1.07.022-2.267.013-.551 0-1.04-.03-1.084-.03-.045-.092-.316-.136-.602a14.18 14.18 0 0 0-.211-1.042 87.86 87.86 0 0 1-.197-.802c-.297-1.258-.463-1.726-.82-2.308a6.065 6.065 0 0 1-.308-.537c0-.195-.571-1.157-.926-1.562-.249-.283-.481-.59-.516-.683-.061-.16-.87-1.42-1.044-1.627-.045-.054-.082-.117-.082-.141 0-.084-.754-1.129-1.038-1.438-.704-.767-1.447-1.491-1.772-1.726-.66-.48-1.423-1.268-1.723-1.783-.11-.187-1.697-1.448-2.047-1.625-.397-.202-.608-.325-.733-.427a6.14 6.14 0 0 0-.579-.341c-.258-.139-.552-.35-.653-.47-.218-.257-1.365-.848-2.488-1.28-1.411-.545-1.38-.54-2.011-.354-.306.09-.692.187-.858.217-.165.03-.309.06-.32.065-.01.006-.037 8.478-.06 18.825l-.041 18.814-.2.099c-.672.33-.897.429-.97.429-.046 0-.271.087-.5.193a6.22 6.22 0 0 1-.617.251c-.11.032-.388.145-.617.249-.228.104-.449.19-.49.19-.04 0-.234.086-.43.19a4.392 4.392 0 0 1-.554.252c-.24.075-.892.361-1.64.72a7.777 7.777 0 0 1-.762.327c-.11.032-.45.18-.756.327-.305.149-.594.27-.642.27-.048 0-.412.162-.809.36-.397.197-.762.36-.811.36-.14 0-.9.413-1.52.82-.31.205-.708.397-.882.428-.175.03-.354.1-.398.156a.432.432 0 0 1-.582.068zm30.773-29.495c-.038-.113-.167-.1-.207.02-.015.044.033.08.107.08.073 0 .118-.045.1-.1z" transform="translate(5.05 -963.27)"/></svg>