<?xml version="1.0" encoding="UTF-8" standalone="no"?>
<!-- Created with Inkscape (http://www.inkscape.org/) -->

<svg
   xmlns:dc="http://purl.org/dc/elements/1.1/"
   xmlns:cc="http://creativecommons.org/ns#"
   xmlns:rdf="http://www.w3.org/1999/02/22-rdf-syntax-ns#"
   xmlns:svg="http://www.w3.org/2000/svg"
   xmlns="http://www.w3.org/2000/svg"
   xmlns:xlink="http://www.w3.org/1999/xlink"
   xmlns:sodipodi="http://sodipodi.sourceforge.net/DTD/sodipodi-0.dtd"
   xmlns:inkscape="http://www.inkscape.org/namespaces/inkscape"
   width="80"
   height="80"
   id="svg2"
   version="1.1"
   inkscape:version="0.48.2 r9819"
   sodipodi:docname="рисунок.svg">
  <defs
     id="defs4">
    <linearGradient
       id="linearGradient3821">
      <stop
         style="stop-color:#000000;stop-opacity:1;"
         offset="0"
         id="stop3823" />
      <stop
         style="stop-color:#000000;stop-opacity:0;"
         offset="1"
         id="stop3825" />
    </linearGradient>
    <linearGradient
       id="linearGradient3779">
      <stop
         style="stop-color:#dec429;stop-opacity:1;"
         offset="0"
         id="stop3781" />
      <stop
         style="stop-color:#be9d2e;stop-opacity:1;"
         offset="1"
         id="stop3783" />
    </linearGradient>
    <linearGradient
       id="linearGradient3771">
      <stop
         style="stop-color:#dec429;stop-opacity:1;"
         offset="0"
         id="stop3773" />
      <stop
         style="stop-color:#be9d2e;stop-opacity:1;"
         offset="1"
         id="stop3775" />
    </linearGradient>
    <linearGradient
       inkscape:collect="always"
       xlink:href="#linearGradient3771"
       id="linearGradient3777"
       x1="-42.767113"
       y1="258.38229"
       x2="506.42712"
       y2="258.38229"
       gradientUnits="userSpaceOnUse" />
    <linearGradient
       inkscape:collect="always"
       xlink:href="#linearGradient3779"
       id="linearGradient3785"
       x1="124.90242"
       y1="325.55743"
       x2="168.04182"
       y2="325.55743"
       gradientUnits="userSpaceOnUse" />
    <linearGradient
       inkscape:collect="always"
       xlink:href="#linearGradient3779"
       id="linearGradient3801"
       x1="72.73098"
       y1="183.631"
       x2="688.92401"
       y2="868.5144"
       gradientUnits="userSpaceOnUse" />
    <linearGradient
       inkscape:collect="always"
       xlink:href="#linearGradient3779"
       id="linearGradient3803"
       x1="72.73098"
       y1="183.631"
       x2="688.92401"
       y2="868.5144"
       gradientUnits="userSpaceOnUse"
       gradientTransform="matrix(0.11233818,0,0,0.1123389,-6.609953,945.04883)" />
    <linearGradient
       inkscape:collect="always"
       xlink:href="#linearGradient3771"
       id="linearGradient3827"
       x1="50.101994"
       y1="516.88989"
       x2="688.71405"
       y2="516.88989"
       gradientUnits="userSpaceOnUse" />
    <linearGradient
       inkscape:collect="always"
       xlink:href="#linearGradient3779"
       id="linearGradient4078"
       gradientUnits="userSpaceOnUse"
       x1="72.73098"
       y1="183.631"
       x2="688.92401"
       y2="868.5144"
       gradientTransform="matrix(0.11235953,0,0,0.11236023,-4.4830155,926.04891)" />
    <linearGradient
       inkscape:collect="always"
       xlink:href="#linearGradient3771"
       id="linearGradient4080"
       gradientUnits="userSpaceOnUse"
       x1="50.101994"
       y1="516.88989"
       x2="688.71405"
       y2="516.88989"
       gradientTransform="matrix(0.11235953,0,0,0.11236023,-4.4830155,926.04891)" />
    <linearGradient
       inkscape:collect="always"
       xlink:href="#linearGradient3779"
       id="linearGradient4082"
       gradientUnits="userSpaceOnUse"
       x1="72.73098"
       y1="183.631"
       x2="688.92401"
       y2="868.5144"
       gradientTransform="matrix(0.11235953,0,0,0.11236023,-4.4830155,926.04891)" />
    <linearGradient
       inkscape:collect="always"
       xlink:href="#linearGradient3771"
       id="linearGradient4084"
       gradientUnits="userSpaceOnUse"
       x1="50.101994"
       y1="516.88989"
       x2="688.71405"
       y2="516.88989"
       gradientTransform="matrix(0.11235953,0,0,0.11236023,-4.4830155,926.04891)" />
    <linearGradient
       inkscape:collect="always"
       xlink:href="#linearGradient3779"
       id="linearGradient4086"
       gradientUnits="userSpaceOnUse"
       x1="72.73098"
       y1="183.631"
       x2="688.92401"
       y2="868.5144"
       gradientTransform="matrix(0.11235953,0,0,0.11236023,-4.4830155,926.04891)" />
    <linearGradient
       inkscape:collect="always"
       xlink:href="#linearGradient3771"
       id="linearGradient4088"
       gradientUnits="userSpaceOnUse"
       x1="50.101994"
       y1="516.88989"
       x2="688.71405"
       y2="516.88989"
       gradientTransform="matrix(0.11235953,0,0,0.11236023,-4.4830155,926.04891)" />
    <linearGradient
       inkscape:collect="always"
       xlink:href="#linearGradient3779"
       id="linearGradient4090"
       gradientUnits="userSpaceOnUse"
       x1="72.73098"
       y1="183.631"
       x2="688.92401"
       y2="868.5144"
       gradientTransform="matrix(0.11235953,0,0,0.11236023,-4.4830155,926.04891)" />
    <linearGradient
       inkscape:collect="always"
       xlink:href="#linearGradient3771"
       id="linearGradient4092"
       gradientUnits="userSpaceOnUse"
       x1="50.101994"
       y1="516.88989"
       x2="688.71405"
       y2="516.88989"
       gradientTransform="matrix(0.11235953,0,0,0.11236023,-4.4830155,926.04891)" />
    <linearGradient
       inkscape:collect="always"
       xlink:href="#linearGradient3779"
       id="linearGradient4094"
       gradientUnits="userSpaceOnUse"
       x1="72.73098"
       y1="183.631"
       x2="688.92401"
       y2="868.5144"
       gradientTransform="matrix(0.11235953,0,0,0.11236023,-4.4830155,926.04891)" />
    <linearGradient
       inkscape:collect="always"
       xlink:href="#linearGradient3771"
       id="linearGradient4096"
       gradientUnits="userSpaceOnUse"
       x1="50.101994"
       y1="516.88989"
       x2="688.71405"
       y2="516.88989"
       gradientTransform="matrix(0.11235953,0,0,0.11236023,-4.4830155,926.04891)" />
    <linearGradient
       inkscape:collect="always"
       xlink:href="#linearGradient3779"
       id="linearGradient4098"
       gradientUnits="userSpaceOnUse"
       x1="72.73098"
       y1="183.631"
       x2="688.92401"
       y2="868.5144"
       gradientTransform="matrix(0.11235953,0,0,0.11236023,-4.4830155,926.04891)" />
    <linearGradient
       inkscape:collect="always"
       xlink:href="#linearGradient3771"
       id="linearGradient4100"
       gradientUnits="userSpaceOnUse"
       x1="50.101994"
       y1="516.88989"
       x2="688.71405"
       y2="516.88989"
       gradientTransform="matrix(0.11235953,0,0,0.11236023,-4.4830155,926.04891)" />
    <linearGradient
       inkscape:collect="always"
       xlink:href="#linearGradient3779"
       id="linearGradient4102"
       gradientUnits="userSpaceOnUse"
       x1="72.73098"
       y1="183.631"
       x2="688.92401"
       y2="868.5144"
       gradientTransform="matrix(0.11235953,0,0,0.11236023,-4.4830155,926.04891)" />
    <linearGradient
       inkscape:collect="always"
       xlink:href="#linearGradient3771"
       id="linearGradient4104"
       gradientUnits="userSpaceOnUse"
       x1="50.101994"
       y1="516.88989"
       x2="688.71405"
       y2="516.88989"
       gradientTransform="matrix(0.11235953,0,0,0.11236023,-4.4830155,926.04891)" />
    <linearGradient
       inkscape:collect="always"
       xlink:href="#linearGradient3779"
       id="linearGradient4106"
       gradientUnits="userSpaceOnUse"
       x1="72.73098"
       y1="183.631"
       x2="688.92401"
       y2="868.5144"
       gradientTransform="matrix(0.11235953,0,0,0.11236023,-4.4830155,926.04891)" />
    <linearGradient
       inkscape:collect="always"
       xlink:href="#linearGradient3771"
       id="linearGradient4108"
       gradientUnits="userSpaceOnUse"
       x1="50.101994"
       y1="516.88989"
       x2="688.71405"
       y2="516.88989"
       gradientTransform="matrix(0.11235953,0,0,0.11236023,-4.4830155,926.04891)" />
    <linearGradient
       inkscape:collect="always"
       xlink:href="#linearGradient3779"
       id="linearGradient4110"
       gradientUnits="userSpaceOnUse"
       x1="72.73098"
       y1="183.631"
       x2="688.92401"
       y2="868.5144"
       gradientTransform="matrix(0.11235953,0,0,0.11236023,-4.4830155,926.04891)" />
    <linearGradient
       inkscape:collect="always"
       xlink:href="#linearGradient3771"
       id="linearGradient4112"
       gradientUnits="userSpaceOnUse"
       x1="50.101994"
       y1="516.88989"
       x2="688.71405"
       y2="516.88989"
       gradientTransform="matrix(0.11235953,0,0,0.11236023,-4.4830155,926.04891)" />
    <linearGradient
       inkscape:collect="always"
       xlink:href="#linearGradient3779"
       id="linearGradient4114"
       gradientUnits="userSpaceOnUse"
       x1="72.73098"
       y1="183.631"
       x2="688.92401"
       y2="868.5144"
       gradientTransform="matrix(0.11235953,0,0,0.11236023,-4.4830155,926.04891)" />
    <linearGradient
       inkscape:collect="always"
       xlink:href="#linearGradient3771"
       id="linearGradient4116"
       gradientUnits="userSpaceOnUse"
       x1="50.101994"
       y1="516.88989"
       x2="688.71405"
       y2="516.88989"
       gradientTransform="matrix(0.11235953,0,0,0.11236023,-4.4830155,926.04891)" />
    <linearGradient
       inkscape:collect="always"
       xlink:href="#linearGradient3779"
       id="linearGradient4118"
       gradientUnits="userSpaceOnUse"
       x1="72.73098"
       y1="183.631"
       x2="688.92401"
       y2="868.5144"
       gradientTransform="matrix(0.11235953,0,0,0.11236023,-4.4830155,926.04891)" />
    <linearGradient
       inkscape:collect="always"
       xlink:href="#linearGradient3771"
       id="linearGradient4120"
       gradientUnits="userSpaceOnUse"
       x1="50.101994"
       y1="516.88989"
       x2="688.71405"
       y2="516.88989"
       gradientTransform="matrix(0.11235953,0,0,0.11236023,-4.4830155,926.04891)" />
    <linearGradient
       inkscape:collect="always"
       xlink:href="#linearGradient3779"
       id="linearGradient4122"
       gradientUnits="userSpaceOnUse"
       x1="72.73098"
       y1="183.631"
       x2="688.92401"
       y2="868.5144"
       gradientTransform="matrix(0.11235953,0,0,0.11236023,-4.4830155,926.04891)" />
    <linearGradient
       inkscape:collect="always"
       xlink:href="#linearGradient3771"
       id="linearGradient4124"
       gradientUnits="userSpaceOnUse"
       x1="50.101994"
       y1="516.88989"
       x2="688.71405"
       y2="516.88989"
       gradientTransform="matrix(0.11235953,0,0,0.11236023,-4.4830155,926.04891)" />
    <linearGradient
       inkscape:collect="always"
       xlink:href="#linearGradient3779"
       id="linearGradient4126"
       gradientUnits="userSpaceOnUse"
       x1="72.73098"
       y1="183.631"
       x2="688.92401"
       y2="868.5144"
       gradientTransform="matrix(0.11235953,0,0,0.11236023,-4.4830155,926.04891)" />
    <linearGradient
       inkscape:collect="always"
       xlink:href="#linearGradient3771"
       id="linearGradient4128"
       gradientUnits="userSpaceOnUse"
       x1="50.101994"
       y1="516.88989"
       x2="688.71405"
       y2="516.88989"
       gradientTransform="matrix(0.11235953,0,0,0.11236023,-4.4830155,926.04891)" />
    <linearGradient
       inkscape:collect="always"
       xlink:href="#linearGradient3779"
       id="linearGradient4130"
       gradientUnits="userSpaceOnUse"
       x1="72.73098"
       y1="183.631"
       x2="688.92401"
       y2="868.5144"
       gradientTransform="matrix(0.11235953,0,0,0.11236023,-4.4830155,926.04891)" />
    <linearGradient
       inkscape:collect="always"
       xlink:href="#linearGradient3771"
       id="linearGradient4132"
       gradientUnits="userSpaceOnUse"
       x1="50.101994"
       y1="516.88989"
       x2="688.71405"
       y2="516.88989"
       gradientTransform="matrix(0.11235953,0,0,0.11236023,-4.4830155,926.04891)" />
    <linearGradient
       inkscape:collect="always"
       xlink:href="#linearGradient3779"
       id="linearGradient4134"
       gradientUnits="userSpaceOnUse"
       x1="72.73098"
       y1="183.631"
       x2="688.92401"
       y2="868.5144"
       gradientTransform="matrix(0.11235953,0,0,0.11236023,-4.4830155,926.04891)" />
    <linearGradient
       inkscape:collect="always"
       xlink:href="#linearGradient3771"
       id="linearGradient4136"
       gradientUnits="userSpaceOnUse"
       x1="50.101994"
       y1="516.88989"
       x2="688.71405"
       y2="516.88989"
       gradientTransform="matrix(0.11235953,0,0,0.11236023,-4.4830155,926.04891)" />
    <linearGradient
       inkscape:collect="always"
       xlink:href="#linearGradient3779"
       id="linearGradient4138"
       gradientUnits="userSpaceOnUse"
       x1="72.73098"
       y1="183.631"
       x2="688.92401"
       y2="868.5144"
       gradientTransform="matrix(0.11235953,0,0,0.11236023,-4.4830155,926.04891)" />
    <linearGradient
       inkscape:collect="always"
       xlink:href="#linearGradient3771"
       id="linearGradient4140"
       gradientUnits="userSpaceOnUse"
       x1="50.101994"
       y1="516.88989"
       x2="688.71405"
       y2="516.88989"
       gradientTransform="matrix(0.11235953,0,0,0.11236023,-4.4830155,926.04891)" />
    <linearGradient
       inkscape:collect="always"
       xlink:href="#linearGradient3779"
       id="linearGradient4142"
       gradientUnits="userSpaceOnUse"
       x1="72.73098"
       y1="183.631"
       x2="688.92401"
       y2="868.5144"
       gradientTransform="matrix(0.11235953,0,0,0.11236023,-4.4830155,926.04891)" />
    <linearGradient
       inkscape:collect="always"
       xlink:href="#linearGradient3771"
       id="linearGradient4144"
       gradientUnits="userSpaceOnUse"
       x1="50.101994"
       y1="516.88989"
       x2="688.71405"
       y2="516.88989"
       gradientTransform="matrix(0.11235953,0,0,0.11236023,-4.4830155,926.04891)" />
    <linearGradient
       inkscape:collect="always"
       xlink:href="#linearGradient3779"
       id="linearGradient4146"
       gradientUnits="userSpaceOnUse"
       x1="72.73098"
       y1="183.631"
       x2="688.92401"
       y2="868.5144"
       gradientTransform="matrix(0.11235953,0,0,0.11236023,-4.4830155,926.04891)" />
    <linearGradient
       inkscape:collect="always"
       xlink:href="#linearGradient3771"
       id="linearGradient4148"
       gradientUnits="userSpaceOnUse"
       x1="50.101994"
       y1="516.88989"
       x2="688.71405"
       y2="516.88989"
       gradientTransform="matrix(0.11235953,0,0,0.11236023,-4.4830155,926.04891)" />
    <linearGradient
       inkscape:collect="always"
       xlink:href="#linearGradient3779"
       id="linearGradient4150"
       gradientUnits="userSpaceOnUse"
       x1="72.73098"
       y1="183.631"
       x2="688.92401"
       y2="868.5144"
       gradientTransform="matrix(0.11235953,0,0,0.11236023,-4.4830155,926.04891)" />
    <linearGradient
       inkscape:collect="always"
       xlink:href="#linearGradient3771"
       id="linearGradient4152"
       gradientUnits="userSpaceOnUse"
       x1="50.101994"
       y1="516.88989"
       x2="688.71405"
       y2="516.88989"
       gradientTransform="matrix(0.11235953,0,0,0.11236023,-4.4830155,926.04891)" />
    <linearGradient
       inkscape:collect="always"
       xlink:href="#linearGradient3779"
       id="linearGradient4154"
       gradientUnits="userSpaceOnUse"
       x1="72.73098"
       y1="183.631"
       x2="688.92401"
       y2="868.5144"
       gradientTransform="matrix(0.11235953,0,0,0.11236023,-4.4830155,926.04891)" />
    <linearGradient
       inkscape:collect="always"
       xlink:href="#linearGradient3771"
       id="linearGradient4156"
       gradientUnits="userSpaceOnUse"
       x1="50.101994"
       y1="516.88989"
       x2="688.71405"
       y2="516.88989"
       gradientTransform="matrix(0.11235953,0,0,0.11236023,-4.4830155,926.04891)" />
    <linearGradient
       inkscape:collect="always"
       xlink:href="#linearGradient3779"
       id="linearGradient4158"
       gradientUnits="userSpaceOnUse"
       x1="72.73098"
       y1="183.631"
       x2="688.92401"
       y2="868.5144"
       gradientTransform="matrix(0.11235953,0,0,0.11236023,-4.4830155,926.04891)" />
    <linearGradient
       inkscape:collect="always"
       xlink:href="#linearGradient3771"
       id="linearGradient4160"
       gradientUnits="userSpaceOnUse"
       x1="50.101994"
       y1="516.88989"
       x2="688.71405"
       y2="516.88989"
       gradientTransform="matrix(0.11235953,0,0,0.11236023,-4.4830155,926.04891)" />
    <linearGradient
       inkscape:collect="always"
       xlink:href="#linearGradient3779"
       id="linearGradient4162"
       gradientUnits="userSpaceOnUse"
       x1="72.73098"
       y1="183.631"
       x2="688.92401"
       y2="868.5144"
       gradientTransform="matrix(0.11235953,0,0,0.11236023,-4.4830155,926.04891)" />
    <linearGradient
       inkscape:collect="always"
       xlink:href="#linearGradient3771"
       id="linearGradient4164"
       gradientUnits="userSpaceOnUse"
       x1="50.101994"
       y1="516.88989"
       x2="688.71405"
       y2="516.88989"
       gradientTransform="matrix(0.11235953,0,0,0.11236023,-4.4830155,926.04891)" />
    <linearGradient
       inkscape:collect="always"
       xlink:href="#linearGradient3779"
       id="linearGradient4166"
       gradientUnits="userSpaceOnUse"
       x1="72.73098"
       y1="183.631"
       x2="688.92401"
       y2="868.5144"
       gradientTransform="matrix(0.11235953,0,0,0.11236023,-4.4830155,926.04891)" />
    <linearGradient
       inkscape:collect="always"
       xlink:href="#linearGradient3771"
       id="linearGradient4168"
       gradientUnits="userSpaceOnUse"
       x1="50.101994"
       y1="516.88989"
       x2="688.71405"
       y2="516.88989"
       gradientTransform="matrix(0.11235953,0,0,0.11236023,-4.4830155,926.04891)" />
    <linearGradient
       inkscape:collect="always"
       xlink:href="#linearGradient3779"
       id="linearGradient4170"
       gradientUnits="userSpaceOnUse"
       x1="72.73098"
       y1="183.631"
       x2="688.92401"
       y2="868.5144"
       gradientTransform="matrix(0.11235953,0,0,0.11236023,-4.4830155,926.04891)" />
    <linearGradient
       inkscape:collect="always"
       xlink:href="#linearGradient3771"
       id="linearGradient4172"
       gradientUnits="userSpaceOnUse"
       x1="50.101994"
       y1="516.88989"
       x2="688.71405"
       y2="516.88989"
       gradientTransform="matrix(0.11235953,0,0,0.11236023,-4.4830155,926.04891)" />
    <linearGradient
       inkscape:collect="always"
       xlink:href="#linearGradient3779"
       id="linearGradient4174"
       gradientUnits="userSpaceOnUse"
       x1="72.73098"
       y1="183.631"
       x2="688.92401"
       y2="868.5144"
       gradientTransform="matrix(0.11235953,0,0,0.11236023,-4.4830155,926.04891)" />
    <linearGradient
       inkscape:collect="always"
       xlink:href="#linearGradient3771"
       id="linearGradient4176"
       gradientUnits="userSpaceOnUse"
       x1="50.101994"
       y1="516.88989"
       x2="688.71405"
       y2="516.88989"
       gradientTransform="matrix(0.11235953,0,0,0.11236023,-4.4830155,926.04891)" />
    <linearGradient
       inkscape:collect="always"
       xlink:href="#linearGradient3779"
       id="linearGradient4178"
       gradientUnits="userSpaceOnUse"
       x1="72.73098"
       y1="183.631"
       x2="688.92401"
       y2="868.5144"
       gradientTransform="matrix(0.11235953,0,0,0.11236023,-4.4830155,926.04891)" />
    <linearGradient
       inkscape:collect="always"
       xlink:href="#linearGradient3771"
       id="linearGradient4180"
       gradientUnits="userSpaceOnUse"
       x1="50.101994"
       y1="516.88989"
       x2="688.71405"
       y2="516.88989"
       gradientTransform="matrix(0.11235953,0,0,0.11236023,-4.4830155,926.04891)" />
    <linearGradient
       inkscape:collect="always"
       xlink:href="#linearGradient3779"
       id="linearGradient4182"
       gradientUnits="userSpaceOnUse"
       x1="72.73098"
       y1="183.631"
       x2="688.92401"
       y2="868.5144"
       gradientTransform="matrix(0.11235953,0,0,0.11236023,-4.4830155,926.04891)" />
    <linearGradient
       inkscape:collect="always"
       xlink:href="#linearGradient3771"
       id="linearGradient4184"
       gradientUnits="userSpaceOnUse"
       x1="50.101994"
       y1="516.88989"
       x2="688.71405"
       y2="516.88989"
       gradientTransform="matrix(0.11235953,0,0,0.11236023,-4.4830155,926.04891)" />
    <linearGradient
       inkscape:collect="always"
       xlink:href="#linearGradient3779"
       id="linearGradient4186"
       gradientUnits="userSpaceOnUse"
       x1="72.73098"
       y1="183.631"
       x2="688.92401"
       y2="868.5144"
       gradientTransform="matrix(0.11235953,0,0,0.11236023,-4.4830155,926.04891)" />
    <linearGradient
       inkscape:collect="always"
       xlink:href="#linearGradient3771"
       id="linearGradient4188"
       gradientUnits="userSpaceOnUse"
       x1="50.101994"
       y1="516.88989"
       x2="688.71405"
       y2="516.88989"
       gradientTransform="matrix(0.11235953,0,0,0.11236023,-4.4830155,926.04891)" />
    <linearGradient
       inkscape:collect="always"
       xlink:href="#linearGradient3779"
       id="linearGradient4190"
       gradientUnits="userSpaceOnUse"
       x1="72.73098"
       y1="183.631"
       x2="688.92401"
       y2="868.5144"
       gradientTransform="matrix(0.11235953,0,0,0.11236023,-4.4830155,926.04891)" />
    <linearGradient
       inkscape:collect="always"
       xlink:href="#linearGradient3771"
       id="linearGradient4192"
       gradientUnits="userSpaceOnUse"
       x1="50.101994"
       y1="516.88989"
       x2="688.71405"
       y2="516.88989"
       gradientTransform="matrix(0.11235953,0,0,0.11236023,-4.4830155,926.04891)" />
    <linearGradient
       inkscape:collect="always"
       xlink:href="#linearGradient3779"
       id="linearGradient4194"
       gradientUnits="userSpaceOnUse"
       x1="72.73098"
       y1="183.631"
       x2="688.92401"
       y2="868.5144"
       gradientTransform="matrix(0.11235953,0,0,0.11236023,-4.4830155,926.04891)" />
    <linearGradient
       inkscape:collect="always"
       xlink:href="#linearGradient3771"
       id="linearGradient4196"
       gradientUnits="userSpaceOnUse"
       x1="50.101994"
       y1="516.88989"
       x2="688.71405"
       y2="516.88989"
       gradientTransform="matrix(0.11235953,0,0,0.11236023,-4.4830155,926.04891)" />
    <linearGradient
       inkscape:collect="always"
       xlink:href="#linearGradient3779"
       id="linearGradient4198"
       gradientUnits="userSpaceOnUse"
       x1="72.73098"
       y1="183.631"
       x2="688.92401"
       y2="868.5144"
       gradientTransform="matrix(0.11235953,0,0,0.11236023,-4.4830155,926.04891)" />
    <linearGradient
       inkscape:collect="always"
       xlink:href="#linearGradient3771"
       id="linearGradient4200"
       gradientUnits="userSpaceOnUse"
       x1="50.101994"
       y1="516.88989"
       x2="688.71405"
       y2="516.88989"
       gradientTransform="matrix(0.11235953,0,0,0.11236023,-4.4830155,926.04891)" />
    <linearGradient
       inkscape:collect="always"
       xlink:href="#linearGradient3779"
       id="linearGradient4202"
       gradientUnits="userSpaceOnUse"
       x1="72.73098"
       y1="183.631"
       x2="688.92401"
       y2="868.5144"
       gradientTransform="matrix(0.11235953,0,0,0.11236023,-4.4830155,926.04891)" />
    <linearGradient
       inkscape:collect="always"
       xlink:href="#linearGradient3771"
       id="linearGradient4204"
       gradientUnits="userSpaceOnUse"
       x1="50.101994"
       y1="516.88989"
       x2="688.71405"
       y2="516.88989"
       gradientTransform="matrix(0.11235953,0,0,0.11236023,-4.4830155,926.04891)" />
    <linearGradient
       inkscape:collect="always"
       xlink:href="#linearGradient3779"
       id="linearGradient4206"
       gradientUnits="userSpaceOnUse"
       x1="72.73098"
       y1="183.631"
       x2="688.92401"
       y2="868.5144"
       gradientTransform="matrix(0.11235953,0,0,0.11236023,-4.4830155,926.04891)" />
    <linearGradient
       inkscape:collect="always"
       xlink:href="#linearGradient3771"
       id="linearGradient4208"
       gradientUnits="userSpaceOnUse"
       x1="50.101994"
       y1="516.88989"
       x2="688.71405"
       y2="516.88989"
       gradientTransform="matrix(0.11235953,0,0,0.11236023,-4.4830155,926.04891)" />
    <linearGradient
       inkscape:collect="always"
       xlink:href="#linearGradient3779"
       id="linearGradient4210"
       gradientUnits="userSpaceOnUse"
       x1="72.73098"
       y1="183.631"
       x2="688.92401"
       y2="868.5144"
       gradientTransform="matrix(0.11235953,0,0,0.11236023,-4.4830155,926.04891)" />
    <linearGradient
       inkscape:collect="always"
       xlink:href="#linearGradient3771"
       id="linearGradient4212"
       gradientUnits="userSpaceOnUse"
       x1="50.101994"
       y1="516.88989"
       x2="688.71405"
       y2="516.88989"
       gradientTransform="matrix(0.11235953,0,0,0.11236023,-4.4830155,926.04891)" />
    <linearGradient
       inkscape:collect="always"
       xlink:href="#linearGradient3779"
       id="linearGradient4214"
       gradientUnits="userSpaceOnUse"
       x1="72.73098"
       y1="183.631"
       x2="688.92401"
       y2="868.5144"
       gradientTransform="matrix(0.11235953,0,0,0.11236023,-4.4830155,926.04891)" />
    <linearGradient
       inkscape:collect="always"
       xlink:href="#linearGradient3771"
       id="linearGradient4216"
       gradientUnits="userSpaceOnUse"
       x1="50.101994"
       y1="516.88989"
       x2="688.71405"
       y2="516.88989"
       gradientTransform="matrix(0.11235953,0,0,0.11236023,-4.4830155,926.04891)" />
    <linearGradient
       inkscape:collect="always"
       xlink:href="#linearGradient3779"
       id="linearGradient4218"
       gradientUnits="userSpaceOnUse"
       x1="72.73098"
       y1="183.631"
       x2="688.92401"
       y2="868.5144"
       gradientTransform="matrix(0.11235953,0,0,0.11236023,-4.4830155,926.04891)" />
    <linearGradient
       inkscape:collect="always"
       xlink:href="#linearGradient3771"
       id="linearGradient4220"
       gradientUnits="userSpaceOnUse"
       x1="50.101994"
       y1="516.88989"
       x2="688.71405"
       y2="516.88989"
       gradientTransform="matrix(0.11235953,0,0,0.11236023,-4.4830155,926.04891)" />
    <linearGradient
       inkscape:collect="always"
       xlink:href="#linearGradient3779"
       id="linearGradient4222"
       gradientUnits="userSpaceOnUse"
       x1="72.73098"
       y1="183.631"
       x2="688.92401"
       y2="868.5144" />
    <linearGradient
       inkscape:collect="always"
       xlink:href="#linearGradient3771"
       id="linearGradient4224"
       gradientUnits="userSpaceOnUse"
       x1="50.101994"
       y1="516.88989"
       x2="688.71405"
       y2="516.88989" />
  </defs>
  <sodipodi:namedview
     id="base"
     pagecolor="#ffffff"
     bordercolor="#666666"
     borderopacity="1.0"
     inkscape:pageopacity="0.0"
     inkscape:pageshadow="2"
     inkscape:zoom="7.919596"
     inkscape:cx="31.392503"
     inkscape:cy="38.132528"
     inkscape:document-units="px"
     inkscape:current-layer="text3822"
     showgrid="false"
     inkscape:window-width="1280"
     inkscape:window-height="968"
     inkscape:window-x="-4"
     inkscape:window-y="-4"
     inkscape:window-maximized="1" />
  <metadata
     id="metadata7">
    <rdf:RDF>
      <cc:Work
         rdf:about="">
        <dc:format>image/svg+xml</dc:format>
        <dc:type
           rdf:resource="http://purl.org/dc/dcmitype/StillImage" />
        <dc:title></dc:title>
      </cc:Work>
    </rdf:RDF>
  </metadata>
  <g
     inkscape:label="Layer 1"
     inkscape:groupmode="layer"
     id="layer1"
     transform="translate(0,-972.36218)">
    <g
       id="g3764"
       transform="translate(5.0507627,9.0913729)">
      <path
         sodipodi:type="arc"
         style="fill:#000000;fill-opacity:1;stroke:url(#linearGradient3777);stroke-width:19.30958366;stroke-linecap:butt;stroke-linejoin:miter;stroke-miterlimit:4;stroke-opacity:1;stroke-dasharray:none"
         id="path3769"
         sodipodi:cx="231.83"
         sodipodi:cy="258.38229"
         sodipodi:rx="264.94232"
         sodipodi:ry="265.72656"
         d="m 496.77232,258.38229 a 264.94232,265.72656 0 1 1 -529.88464,0 264.94232,265.72656 0 1 1 529.88464,0 z"
         transform="matrix(0.07905156,0.12234168,-0.12197985,0.07881875,48.140376,954.54296)" />
      <path
         sodipodi:type="arc"
         style="color:#000000;fill:none;stroke:url(#linearGradient3785);stroke-width:1.12302268;stroke-linecap:butt;stroke-linejoin:miter;stroke-miterlimit:4;stroke-opacity:1;stroke-dasharray:1.12302264, 1.12302264;stroke-dashoffset:0;marker:none;visibility:visible;display:inline;overflow:visible;enable-background:accumulate"
         id="path3777"
         sodipodi:cx="146.47212"
         sodipodi:cy="325.55743"
         sodipodi:rx="21.008188"
         sodipodi:ry="43.941635"
         d="m 167.48031,325.55743 a 21.008188,43.941635 0 1 1 0,-0.0153"
         transform="matrix(1.0955393,0.94487378,-0.45173469,0.52377298,21.549095,694.35492)"
         sodipodi:start="0"
         sodipodi:end="6.2828377"
         sodipodi:open="true" />
      <g
         style="font-size:44px;font-style:normal;font-weight:bold;text-align:start;line-height:125%;letter-spacing:0px;word-spacing:0px;text-anchor:start;fill:url(#linearGradient4222);fill-opacity:1;stroke:url(#linearGradient4224);stroke-opacity:1;font-family:Sans;-inkscape-font-specification:Sans Bold"
         id="text3822">
        <path
           d="m 28.345925,1036.7328 c -0.0867,0.3499 -0.211797,0.6307 -0.37529,0.8421 -0.121454,0.1556 -0.266965,0.2862 -0.436534,0.3918 -0.169569,0.1055 -0.34312,0.1719 -0.520659,0.1992 -0.236451,0.037 -0.494486,0.022 -0.7741,-0.048 -0.506108,-0.1255 -0.872176,-0.3828 -1.098204,-0.772 -0.226021,-0.3893 -0.26975,-0.8635 -0.131187,-1.4227 0.137413,-0.5546 0.395661,-0.9511 0.774743,-1.1896 0.379089,-0.2385 0.820907,-0.2953 1.325454,-0.1702 0.510801,0.1265 0.878331,0.3829 1.102591,0.7693 0.224264,0.3864 0.268659,0.853 0.133186,1.3996 z m -0.720454,-0.1537 c 0.09638,-0.3888 0.07961,-0.706 -0.05028,-0.9512 -0.129901,-0.2453 -0.333095,-0.4021 -0.609585,-0.4706 -0.276485,-0.069 -0.52805,-0.025 -0.754699,0.13 -0.226641,0.1553 -0.389317,0.4321 -0.48802,0.8303 -0.09753,0.3938 -0.08399,0.7088 0.04061,0.9453 0.124617,0.2364 0.329855,0.3901 0.615711,0.4609 0.285861,0.07 0.540556,0.029 0.764083,-0.1227 0.22353,-0.1528 0.384258,-0.4267 0.482184,-0.822 z"
           style="fill:url(#linearGradient4078);stroke:url(#linearGradient4080);stroke-width:0.1123599"
           id="path3862"
           inkscape:connector-curvature="0" />
        <path
           d="m 23.612551,1033.5715 -1.369436,3.2632 -1.057306,-0.4437 c -0.400662,-0.1682 -0.654984,-0.2941 -0.76297,-0.3778 -0.166423,-0.1274 -0.278295,-0.2996 -0.335619,-0.5165 -0.05732,-0.2169 -0.03148,-0.4552 0.07749,-0.7149 0.08407,-0.2003 0.191114,-0.3536 0.321118,-0.4596 0.130009,-0.1059 0.267378,-0.1744 0.412107,-0.2053 0.144737,-0.031 0.280268,-0.034 0.4066,-0.012 0.170377,0.035 0.4047,0.1149 0.702969,0.24 l 0.429602,0.1804 0.516574,-1.231 z m -1.79664,2.4348 0.388598,-0.9261 -0.360599,-0.1514 c -0.259685,-0.1089 -0.440467,-0.1647 -0.542346,-0.1673 -0.101873,0 -0.192923,0.023 -0.273154,0.074 -0.08022,0.052 -0.140578,0.1259 -0.181059,0.2224 -0.04981,0.1186 -0.05605,0.2313 -0.01869,0.3378 0.03736,0.1063 0.105421,0.1917 0.204167,0.2558 0.07242,0.048 0.227349,0.1215 0.464776,0.2212 z"
           style="fill:url(#linearGradient4082);stroke:url(#linearGradient4084);stroke-width:0.1123599"
           id="path3864"
           inkscape:connector-curvature="0" />
        <path
           d="m 19.364864,1031.6234 -1.828109,3.0302 -2.246765,-1.3556 0.309258,-0.5125 1.63495,0.9863 0.405275,-0.6716 -1.521268,-0.9179 0.308009,-0.5105 1.52127,0.9178 0.497556,-0.8247 -1.692825,-1.0213 0.308008,-0.5106 z"
           style="fill:url(#linearGradient4086);stroke:url(#linearGradient4088);stroke-width:0.1123599"
           id="path3866"
           inkscape:connector-curvature="0" />
        <path
           d="m 15.43482,1029.0806 -2.257143,2.7256 -0.535455,-0.4434 0.391791,-2.7439 -1.507328,1.8201 -0.511288,-0.4234 2.257144,-2.7257 0.552189,0.4573 -0.373113,2.6874 1.471915,-1.7774 z"
           style="fill:url(#linearGradient4090);stroke:url(#linearGradient4092);stroke-width:0.1123599"
           id="path3868"
           inkscape:connector-curvature="0" />
        <path
           d="m 10.796879,1024.8005 -2.7418869,2.2374 -0.4395359,-0.5387 0.9153423,-2.6163 -1.8310411,1.4942 -0.4196956,-0.5143 2.7418861,-2.2374 0.453272,0.5555 -0.8860605,2.5643 1.7880246,-1.459 z"
           style="fill:url(#linearGradient4094);stroke:url(#linearGradient4096);stroke-width:0.1123599"
           id="path3870"
           inkscape:connector-curvature="0" />
        <path
           d="m 4.7528686,1022.6747 -0.3621639,-0.6159 1.6522551,-0.9715 c 0.2621983,-0.1541 0.4276542,-0.2617 0.496368,-0.3227 0.109359,-0.1 0.1726804,-0.2215 0.1899647,-0.365 0.017287,-0.1438 -0.024642,-0.3016 -0.125789,-0.4736 -0.1027747,-0.1748 -0.2159872,-0.2856 -0.3396378,-0.3324 -0.1236471,-0.047 -0.2427964,-0.049 -0.3574487,-0.01 -0.1146481,0.043 -0.2926666,0.1357 -0.5340562,0.2776 l -1.687631,0.9923 -0.362164,-0.616 1.6023129,-0.9421 c 0.3662456,-0.2154 0.6347619,-0.3508 0.8055501,-0.4064 0.1707924,-0.056 0.3345165,-0.069 0.4911724,-0.041 0.1566596,0.028 0.3099025,0.099 0.459729,0.2127 0.1498296,0.1136 0.2957071,0.291 0.4376364,0.5324 0.1712942,0.2914 0.2675505,0.5321 0.2887672,0.7221 0.021219,0.1901 0.00376,0.3605 -0.052363,0.5111 -0.056126,0.1506 -0.1349912,0.2744 -0.2365978,0.3716 -0.1511414,0.1429 -0.3973485,0.3148 -0.7386218,0.5155 z"
           style="fill:url(#linearGradient4098);stroke:url(#linearGradient4100);stroke-width:0.1123599"
           id="path3872"
           inkscape:connector-curvature="0" />
        <path
           d="m 5.4258349,1016.5499 -3.3005635,1.2768 -0.3858003,-0.9975 2.0197532,-1.4697 -2.4804492,0.2788 -0.38667153,-0.9997 3.30056343,-1.2766 0.2394925,0.6191 -2.5981244,1.005 2.8515509,-0.3499 0.2482011,0.6417 -2.3455687,1.6579 2.5981243,-1.005 z"
           style="fill:url(#linearGradient4102);stroke:url(#linearGradient4104);stroke-width:0.1123599"
           id="path3874"
           inkscape:connector-curvature="0" />
        <path
           d="m 3.6562284,1011.3655 -3.43710584,0.8427 -0.17013445,-0.694 3.43710549,-0.8426 z"
           style="fill:url(#linearGradient4106);stroke:url(#linearGradient4108);stroke-width:0.1123599"
           id="path3876"
           inkscape:connector-curvature="0" />
        <path
           d="m 1.941584,1008.9882 -0.1536819,-0.6813 c 0.2263205,-0.07 0.3858006,-0.1763 0.4784404,-0.3168 0.092641,-0.1407 0.1254279,-0.3187 0.098359,-0.5342 -0.028671,-0.2284 -0.098578,-0.3943 -0.2097201,-0.4981 -0.1111404,-0.1035 -0.2313805,-0.1473 -0.3607208,-0.131 -0.08303,0.011 -0.1506306,0.044 -0.2027989,0.1 -0.052166,0.056 -0.092187,0.1475 -0.1200627,0.2742 -0.018315,0.087 -0.045651,0.2823 -0.082012,0.5869 -0.046488,0.3919 -0.1287704,0.6731 -0.2468468,0.8436 -0.16613996,0.2399 -0.38813033,0.3772 -0.66597182,0.4121 -0.17883622,0.022 -0.3524644,-0.01 -0.52088511,-0.089 -0.16841434,-0.082 -0.30532093,-0.2131 -0.4107202,-0.3936 -0.10539211,-0.1806 -0.17503243,-0.4058 -0.20892118,-0.6758 -0.0553351,-0.4406 -3.8203e-4,-0.7845 0.16485131,-1.0315 0.1652432,-0.2469 0.40843559,-0.3964 0.72957772,-0.448 l 0.12016064,0.7051 c -0.17662331,0.053 -0.2981908,0.1343 -0.36470279,0.244 -0.06650579,0.1097 -0.08722885,0.2643 -0.06216923,0.464 0.02586812,0.206 0.0884335,0.3619 0.18769635,0.4679 0.063717,0.068 0.14108208,0.097 0.23209544,0.085 0.0830352,-0.011 0.14968052,-0.055 0.19993656,-0.1321 0.0638228,-0.099 0.11479637,-0.3258 0.15292087,-0.6809 0.0381293,-0.3552 0.0903288,-0.6208 0.15659866,-0.797 0.0662749,-0.1761 0.16899368,-0.3205 0.30815738,-0.4328 0.1391679,-0.1124 0.3197265,-0.1825 0.5416768,-0.2104 0.2011952,-0.025 0.3966323,0.01 0.586312,0.097 0.1896815,0.09 0.3400675,0.2314 0.4511591,0.4251 0.1110922,0.1936 0.1857861,0.443 0.2240821,0.748 0.055741,0.4438 -0.00404,0.7976 -0.1793564,1.0613 -0.1753102,0.2637 -0.4564618,0.4433 -0.843455,0.539 z"
           style="fill:url(#linearGradient4110);stroke:url(#linearGradient4112);stroke-width:0.1123599"
           id="path3878"
           inkscape:connector-curvature="0" />
        <path
           d="m 2.6108836,1004.0212 -3.53715596,-0.1107 0.0334341,-1.0689 2.43286926,-0.5663 -2.39294477,-0.7101 0.0335096,-1.0713 3.53715587,0.1107 -0.020755,0.6635 -2.78436421,-0.087 2.76240201,0.7892 -0.021508,0.6877 -2.80625123,0.6124 2.78436423,0.087 z"
           style="fill:url(#linearGradient4114);stroke:url(#linearGradient4116);stroke-width:0.1123599"
           id="path3880"
           inkscape:connector-curvature="0" />
        <path
           d="m 3.5811854,995.39721 -0.1485197,0.763 -0.8480823,0.1497 -0.2702875,1.38853 0.733233,0.4403 -0.1448295,0.74404 -3.21031726,-2.02919 0.1443685,-0.74165 z m -1.6256862,1.02387 -1.38217834,0.22772 1.19768194,0.72008 z"
           style="fill:url(#linearGradient4118);stroke:url(#linearGradient4120);stroke-width:0.1123599"
           id="path3882"
           inkscape:connector-curvature="0" />
        <path
           d="m 4.3483132,992.96249 -2.7738616,-0.97498 -0.3482076,0.99067 -0.56479284,-0.19853 0.93255564,-2.65317 0.5647928,0.19853 -0.3474069,0.98838 2.7738614,0.97498 z"
           style="fill:url(#linearGradient4122);stroke:url(#linearGradient4124);stroke-width:0.1123599"
           id="path3884"
           inkscape:connector-curvature="0" />
        <path
           d="m 7.7869911,982.74086 c -0.2756619,-0.23229 -0.472282,-0.46849 -0.5898605,-0.70857 -0.085979,-0.17768 -0.138881,-0.36589 -0.1587068,-0.56464 -0.019822,-0.19874 -0.00278,-0.38379 0.051107,-0.55515 0.070698,-0.22873 0.1988584,-0.45326 0.3844842,-0.67354 0.3359977,-0.39874 0.7285257,-0.61355 1.177585,-0.64447 0.4490594,-0.0309 0.8938739,0.13925 1.3344432,0.51051 0.4368788,0.36815 0.6786148,0.77494 0.7252148,1.22038 0.04659,0.44544 -0.09758,0.86691 -0.432541,1.26441 -0.3391117,0.40242 -0.7314948,0.61894 -1.1771519,0.64957 -0.4456582,0.0306 -0.8838503,-0.13554 -1.3145748,-0.4985 z m 0.4559796,-0.57858 c 0.30643,0.25823 0.5983425,0.3832 0.8757366,0.37493 0.2773955,-0.008 0.5078697,-0.1213 0.6914235,-0.33913 0.1835531,-0.21783 0.2557252,-0.46269 0.2165232,-0.73459 -0.039201,-0.27189 -0.215713,-0.54007 -0.5295253,-0.80452 -0.3101224,-0.26132 -0.5987773,-0.38829 -0.8659683,-0.3809 -0.2671898,0.008 -0.4956729,0.12369 -0.6854502,0.34891 -0.1897742,0.22521 -0.2655125,0.4718 -0.227216,0.73978 0.038301,0.26798 0.213126,0.53314 0.5244765,0.79552 z"
           style="fill:url(#linearGradient4126);stroke:url(#linearGradient4128);stroke-width:0.1123599"
           id="path3886"
           inkscape:connector-curvature="0" />
        <path
           d="m 12.711771,979.88821 -2.328538,-2.66491 0.863454,-0.75447 c 0.327203,-0.2859 0.552141,-0.45894 0.674808,-0.51912 0.187637,-0.0935 0.391465,-0.1182 0.611486,-0.0743 0.220017,0.0439 0.42268,0.17189 0.607989,0.38396 0.142951,0.16361 0.233445,0.32709 0.271485,0.49048 0.03804,0.16338 0.0391,0.31685 0.0032,0.46041 -0.03591,0.14359 -0.09212,0.26697 -0.168642,0.37016 -0.106221,0.13769 -0.281123,0.31297 -0.524706,0.52581 l -0.350835,0.30655 0.878361,1.00525 z m -1.396556,-2.68425 0.660758,0.75621 0.294481,-0.25731 c 0.212077,-0.18531 0.341689,-0.32315 0.388834,-0.41349 0.04714,-0.0904 0.06508,-0.18295 0.05378,-0.27782 -0.01128,-0.0948 -0.05135,-0.18166 -0.120178,-0.26043 -0.08471,-0.097 -0.183079,-0.15204 -0.295101,-0.1653 -0.11202,-0.0132 -0.218541,0.0104 -0.319559,0.0709 -0.07481,0.044 -0.209176,0.15072 -0.403076,0.32015 z"
           style="fill:url(#linearGradient4130);stroke:url(#linearGradient4132);stroke-width:0.1123599"
           id="path3888"
           inkscape:connector-curvature="0" />
        <path
           d="m 16.328075,976.92837 -1.92098,-2.97213 2.203754,-1.42437 0.324969,0.50279 -1.603651,1.03649 0.425864,0.6589 1.492147,-0.96442 0.323658,0.50077 -1.492146,0.96442 0.522831,0.80893 1.660419,-1.07319 0.323657,0.50077 z"
           style="fill:url(#linearGradient4134);stroke:url(#linearGradient4136);stroke-width:0.1123599"
           id="path3890"
           inkscape:connector-curvature="0" />
        <path
           d="m 20.337107,974.51192 -1.457313,-3.22492 0.633537,-0.28629 2.293077,1.55716 -0.973202,-2.15361 0.604943,-0.27338 1.457317,3.22492 -0.653337,0.29524 -2.250416,-1.51551 0.950338,2.10302 z"
           style="fill:url(#linearGradient4138);stroke:url(#linearGradient4140);stroke-width:0.1123599"
           id="path3892"
           inkscape:connector-curvature="0" />
        <path
           d="m 27.550255,971.88917 -0.649055,-3.47888 0.683432,-0.12752 1.857255,2.05756 -0.433441,-2.3232 0.652584,-0.12176 0.649053,3.47889 -0.704789,0.13149 -1.825714,-2.00697 0.423255,2.26863 z"
           style="fill:url(#linearGradient4142);stroke:url(#linearGradient4144);stroke-width:0.1123599"
           id="path3894"
           inkscape:connector-curvature="0" />
        <path
           d="m 32.313786,967.6059 0.714182,-0.0225 0.06034,1.91575 c 0.0095,0.30401 0.02463,0.50079 0.04516,0.5903 0.03512,0.1438 0.111567,0.25773 0.22934,0.34177 0.117769,0.0841 0.276383,0.12292 0.47584,0.11664 0.202672,-0.007 0.354177,-0.0527 0.454514,-0.1387 0.100332,-0.0861 0.159055,-0.18977 0.17617,-0.31107 0.01711,-0.1213 0.02125,-0.32189 0.01243,-0.60178 l -0.06164,-1.95677 0.714183,-0.0225 0.05852,1.85786 c 0.01337,0.42465 0.0035,0.72524 -0.02955,0.90179 -0.03308,0.17654 -0.09959,0.32677 -0.199545,0.45068 -0.09994,0.1239 -0.235659,0.22438 -0.407121,0.30144 -0.171467,0.0771 -0.39714,0.11998 -0.677021,0.1288 -0.33779,0.0107 -0.595174,-0.0203 -0.772155,-0.0929 -0.176982,-0.0725 -0.318105,-0.1695 -0.42337,-0.29098 -0.105264,-0.12147 -0.176132,-0.25005 -0.212609,-0.38577 -0.05304,-0.2012 -0.08578,-0.49965 -0.09824,-0.89536 z"
           style="fill:url(#linearGradient4146);stroke:url(#linearGradient4148);stroke-width:0.1123599"
           id="path3896"
           inkscape:connector-curvature="0" />
        <path
           d="m 37.366026,971.13033 0.45355,-3.50973 1.060573,0.13705 0.327442,2.47639 0.939018,-2.31272 1.062965,0.13737 -0.45355,3.50971 -0.65837,-0.0851 0.357027,-2.76277 -1.053699,2.67274 -0.682308,-0.0882 -0.337256,-2.85248 -0.357025,2.76277 z"
           style="fill:url(#linearGradient4150);stroke:url(#linearGradient4152);stroke-width:0.1123599"
           id="path3898"
           inkscape:connector-curvature="0" />
        <path
           d="m 42.766674,972.04847 0.898154,-3.42304 0.691139,0.18135 -0.898152,3.42304 z"
           style="fill:url(#linearGradient4154);stroke:url(#linearGradient4156);stroke-width:0.1123599"
           id="path3900"
           inkscape:connector-curvature="0" />
        <path
           d="m 45.674366,971.67479 0.67215,0.19006 c -0.04594,0.23257 -0.02925,0.42311 0.05009,0.5716 0.07934,0.14849 0.220192,0.26227 0.422555,0.34133 0.21435,0.0838 0.393579,0.10152 0.53769,0.0533 0.144103,-0.0483 0.239877,-0.13304 0.287319,-0.25447 0.03045,-0.078 0.0335,-0.1532 0.0091,-0.22578 -0.02435,-0.0726 -0.08557,-0.15134 -0.183673,-0.23633 -0.06741,-0.0575 -0.226293,-0.1748 -0.476659,-0.35211 -0.322202,-0.22783 -0.530069,-0.4343 -0.623601,-0.61944 -0.131495,-0.26045 -0.146291,-0.52107 -0.04437,-0.78189 0.06559,-0.16788 0.174534,-0.30631 0.326823,-0.41528 0.152286,-0.10895 0.332926,-0.16667 0.541923,-0.17313 0.208993,-0.007 0.440152,0.0398 0.69348,0.13878 0.413711,0.16165 0.689688,0.37401 0.827931,0.63708 0.138236,0.26308 0.153452,0.54807 0.04564,0.85496 l -0.676961,-0.23081 c 0.03769,-0.18052 0.0242,-0.32616 -0.04049,-0.43698 -0.06469,-0.1108 -0.19073,-0.20279 -0.378097,-0.27602 -0.19337,-0.0756 -0.360286,-0.095 -0.500748,-0.0583 -0.09037,0.0235 -0.152239,0.0779 -0.18562,0.16333 -0.03046,0.078 -0.02355,0.15754 0.02075,0.23876 0.05642,0.10326 0.231574,0.25636 0.525484,0.45931 0.293905,0.20296 0.50247,0.37559 0.625697,0.5179 0.12322,0.1423 0.201005,0.30142 0.233354,0.47733 0.03234,0.17591 0.0078,0.36806 -0.07359,0.57641 -0.07379,0.18888 -0.195368,0.34525 -0.364715,0.46914 -0.169354,0.12389 -0.36563,0.18845 -0.588827,0.19368 -0.223203,0.005 -0.477954,-0.0481 -0.764256,-0.15995 -0.416713,-0.16282 -0.699113,-0.38416 -0.847199,-0.66404 -0.148088,-0.27988 -0.171831,-0.61269 -0.07123,-0.99843 z"
           style="fill:url(#linearGradient4158);stroke:url(#linearGradient4160);stroke-width:0.1123599"
           id="path3902"
           inkscape:connector-curvature="0" />
        <path
           d="m 49.719949,974.63377 1.791634,-3.05187 0.922215,0.5414 -0.66838,2.40686 1.769627,-1.76034 0.924296,0.54262 -1.791635,3.05186 -0.572481,-0.33608 1.410332,-2.40236 -2.016121,2.04672 -0.5933,-0.34831 0.806625,-2.75677 -1.410332,2.40235 z"
           style="fill:url(#linearGradient4162);stroke:url(#linearGradient4164);stroke-width:0.1123599"
           id="path3904"
           inkscape:connector-curvature="0" />
        <path
           d="m 56.822064,979.62077 -0.598297,-0.49622 0.275342,-0.81599 -1.088823,-0.90308 -0.738001,0.43228 -0.583432,-0.4839 3.320151,-1.84398 0.581574,0.48234 z m -0.118828,-1.91756 0.463009,-1.32209 -1.206235,0.70566 z"
           style="fill:url(#linearGradient4166);stroke:url(#linearGradient4168);stroke-width:0.1123599"
           id="path3906"
           inkscape:connector-curvature="0" />
        <path
           d="m 58.592895,981.4593 2.182258,-1.97045 -0.703729,-0.77939 0.444335,-0.4012 1.884701,2.08731 -0.444334,0.40121 -0.702114,-0.77759 -2.182258,1.97045 z"
           style="fill:url(#linearGradient4170);stroke:url(#linearGradient4172);stroke-width:0.1123599"
           id="path3908"
           inkscape:connector-curvature="0" />
        <path
           d="m 66.504992,990.68957 c 0.341012,-0.11687 0.644699,-0.16396 0.911061,-0.14128 0.196594,0.0177 0.385204,0.0692 0.565831,0.1544 0.180622,0.0852 0.330538,0.19505 0.449745,0.32943 0.159778,0.1783 0.286364,0.4037 0.379765,0.67622 0.169046,0.49325 0.151314,0.94037 -0.0532,1.34135 -0.204521,0.40099 -0.579287,0.69487 -1.124297,0.88167 -0.540449,0.18522 -1.01364,0.18323 -1.419579,-0.006 -0.40594,-0.18921 -0.693175,-0.52969 -0.861703,-1.02142 -0.170617,-0.49782 -0.154418,-0.94569 0.04861,-1.3436 0.203014,-0.39792 0.570938,-0.68818 1.103776,-0.8708 z m 0.261543,0.68866 c -0.379077,0.12993 -0.636425,0.31595 -0.772049,0.55806 -0.135623,0.24213 -0.157261,0.49793 -0.06491,0.76739 0.09235,0.26946 0.26519,0.45732 0.518516,0.56359 0.253322,0.10627 0.574088,0.0929 0.962299,-0.0402 0.383636,-0.1315 0.641018,-0.31369 0.772144,-0.54661 0.131117,-0.23293 0.148935,-0.48869 0.05346,-0.76729 -0.09548,-0.2786 -0.267976,-0.47041 -0.51747,-0.57543 -0.249499,-0.10503 -0.566829,-0.0916 -0.95199,0.0405 z"
           style="fill:url(#linearGradient4174);stroke:url(#linearGradient4176);stroke-width:0.1123599"
           id="path3910"
           inkscape:connector-curvature="0" />
        <path
           d="m 66.41513,996.38091 3.484345,-0.61891 0.200533,1.12897 c 0.07598,0.42782 0.108093,0.70979 0.09632,0.84592 -0.01682,0.20894 -0.100828,0.3963 -0.25199,0.56208 -0.151167,0.16578 -0.365396,0.27331 -0.642681,0.32257 -0.213912,0.038 -0.40065,0.0311 -0.560213,-0.0207 -0.159569,-0.0518 -0.29157,-0.13006 -0.396005,-0.23491 -0.104439,-0.10485 -0.181102,-0.21669 -0.22999,-0.33549 -0.06311,-0.16205 -0.122949,-0.40233 -0.179519,-0.72082 l -0.08148,-0.45871 -1.314354,0.23346 z m 3.01987,0.18932 -0.988737,0.17562 0.06839,0.38504 c 0.04924,0.2773 0.100401,0.45944 0.153452,0.54646 0.05305,0.087 0.123107,0.15016 0.210179,0.18947 0.08706,0.0393 0.182099,0.0498 0.285096,0.0315 0.126756,-0.0225 0.22472,-0.0784 0.293889,-0.16744 0.06916,-0.0892 0.103915,-0.19253 0.104251,-0.31027 9e-4,-0.0868 -0.02113,-0.25696 -0.06615,-0.51049 z"
           style="fill:url(#linearGradient4178);stroke:url(#linearGradient4180);stroke-width:0.1123599"
           id="path3912"
           inkscape:connector-curvature="0" />
        <path
           d="m 67.081959,1001.0062 3.537156,-0.1105 0.082,2.6226 -0.598373,0.019 -0.05967,-1.9085 -0.784156,0.024 0.05552,1.7758 -0.595962,0.019 -0.05552,-1.7758 -0.962706,0.03 0.06178,1.9761 -0.595961,0.019 z"
           style="fill:url(#linearGradient4182);stroke:url(#linearGradient4184);stroke-width:0.1123599"
           id="path3914"
           inkscape:connector-curvature="0" />
        <path
           d="m 67.083855,1005.6873 3.515085,0.4097 -0.08048,0.6905 -2.51508,1.1651 2.347387,0.2736 -0.07685,0.6593 -3.515087,-0.4096 0.083,-0.7122 2.457416,-1.1498 -2.29224,-0.2673 z"
           style="fill:url(#linearGradient4186);stroke:url(#linearGradient4188);stroke-width:0.1123599"
           id="path3916"
           inkscape:connector-curvature="0" />
        <path
           d="m 65.624246,1013.2225 3.317599,1.2319 -0.241985,0.6517 -2.71964,0.5352 2.215505,0.8226 -0.231063,0.6222 -3.317596,-1.2316 0.249547,-0.6722 2.660027,-0.5342 -2.163455,-0.8033 z"
           style="fill:url(#linearGradient4190);stroke:url(#linearGradient4192);stroke-width:0.1123599"
           id="path3918"
           inkscape:connector-curvature="0" />
        <path
           d="m 66.846901,1019.514 -0.348596,0.6238 -1.673121,-0.9352 c -0.265508,-0.1484 -0.441915,-0.2368 -0.529219,-0.2653 -0.141351,-0.044 -0.278373,-0.037 -0.411075,0.021 -0.132697,0.058 -0.247723,0.1736 -0.34508,0.3478 -0.09892,0.1769 -0.137339,0.3306 -0.115239,0.461 0.02211,0.1304 0.08073,0.2341 0.175878,0.3113 0.09515,0.077 0.264948,0.184 0.509386,0.3206 l 1.708943,0.9551 -0.348598,0.6237 -1.622547,-0.9068 c -0.370868,-0.2073 -0.623442,-0.3706 -0.757723,-0.4899 -0.13428,-0.1192 -0.22878,-0.2536 -0.283501,-0.4031 -0.05472,-0.1495 -0.07093,-0.3176 -0.04866,-0.5043 0.02229,-0.1866 0.101726,-0.4021 0.238338,-0.6466 0.164876,-0.295 0.323975,-0.4997 0.477293,-0.614 0.15332,-0.1145 0.309145,-0.1854 0.467481,-0.213 0.158337,-0.027 0.305058,-0.022 0.44017,0.017 0.199775,0.058 0.472451,0.184 0.818034,0.3771 z"
           style="fill:url(#linearGradient4194);stroke:url(#linearGradient4196);stroke-width:0.1123599"
           id="path3920"
           inkscape:connector-curvature="0" />
        <path
           d="m 61.220908,1022.0272 2.770966,2.2013 -0.665177,0.8373 -2.289562,-0.9987 1.495253,1.9987 -0.666678,0.8392 -2.770967,-2.2013 0.41292,-0.5198 2.181238,1.7327 -1.744292,-2.2828 0.427936,-0.5386 2.61668,1.1846 -2.181237,-1.7328 z"
           style="fill:url(#linearGradient4198);stroke:url(#linearGradient4200);stroke-width:0.1123599"
           id="path3922"
           inkscape:connector-curvature="0" />
        <path
           d="m 57.645924,1026.1781 2.469769,2.5346 -0.511753,0.4988 -2.469768,-2.5346 z"
           style="fill:url(#linearGradient4202);stroke:url(#linearGradient4204);stroke-width:0.1123599"
           id="path3924"
           inkscape:connector-curvature="0" />
        <path
           d="m 56.468688,1028.8616 -0.508689,0.4786 c -0.175826,-0.1589 -0.347813,-0.2427 -0.515966,-0.251 -0.168154,-0.01 -0.338171,0.054 -0.510055,0.1868 -0.182069,0.1409 -0.289481,0.2853 -0.322241,0.4338 -0.03276,0.1484 -0.0092,0.2741 0.07045,0.3772 0.05119,0.066 0.114156,0.1076 0.188916,0.1241 0.07475,0.017 0.173809,0 0.297148,-0.036 0.08393,-0.028 0.2663,-0.1042 0.547121,-0.2277 0.361095,-0.1591 0.645084,-0.2311 0.851962,-0.2162 0.290979,0.022 0.522104,0.1425 0.693373,0.364 0.11024,0.1427 0.172918,0.3072 0.18804,0.494 0.01511,0.1866 -0.0283,0.3712 -0.130247,0.5538 -0.101951,0.1825 -0.260512,0.3569 -0.475684,0.5233 -0.351406,0.2717 -0.675466,0.3991 -0.972177,0.3825 -0.296711,-0.017 -0.548938,-0.1504 -0.756678,-0.4007 l 0.546114,-0.4619 c 0.135416,0.1252 0.267273,0.1885 0.39557,0.1901 0.128298,0 0.272023,-0.06 0.431173,-0.1823 0.164244,-0.1271 0.266755,-0.2603 0.307533,-0.3995 0.02638,-0.089 0.01151,-0.1706 -0.04459,-0.2431 -0.05118,-0.067 -0.122995,-0.1013 -0.215434,-0.1051 -0.117563,0 -0.33895,0.067 -0.664161,0.2144 -0.325213,0.1477 -0.580532,0.2378 -0.765953,0.2702 -0.18542,0.032 -0.361879,0.018 -0.529378,-0.045 -0.167497,-0.063 -0.319656,-0.1826 -0.456473,-0.3596 -0.124017,-0.1605 -0.195602,-0.3452 -0.214752,-0.554 -0.01913,-0.209 0.02644,-0.4106 0.136748,-0.6046 0.110313,-0.1941 0.287059,-0.3853 0.530242,-0.5733 0.353954,-0.2736 0.689025,-0.4019 1.005215,-0.385 0.31619,0.017 0.613813,0.1679 0.892874,0.4525 z"
           style="fill:url(#linearGradient4206);stroke:url(#linearGradient4208);stroke-width:0.1123599"
           id="path3926"
           inkscape:connector-curvature="0" />
        <path
           d="m 51.851433,1030.8107 1.69885,3.1045 -0.938112,0.5133 -1.722126,-1.8093 0.601896,2.4224 -0.940228,0.5146 -1.698852,-3.1045 0.582352,-0.3188 1.337292,2.4439 -0.721062,-2.7811 0.603527,-0.3301 1.951407,2.1076 -1.337293,-2.4437 z"
           style="fill:url(#linearGradient4210);stroke:url(#linearGradient4212);stroke-width:0.1123599"
           id="path3928"
           inkscape:connector-curvature="0" />
        <path
           d="m 43.924098,1034.341 0.733297,-0.2578 0.558128,0.656 1.334504,-0.4692 0.0089,-0.8553 0.715076,-0.2514 -0.126525,3.7957 -0.712798,0.2507 z m 1.705541,0.8846 0.895596,1.0771 0.01532,-1.3975 z"
           style="fill:url(#linearGradient4214);stroke:url(#linearGradient4216);stroke-width:0.1123599"
           id="path3930"
           inkscape:connector-curvature="0" />
        <path
           d="m 41.435659,1034.9103 0.56181,2.8861 1.030732,-0.2006 0.114391,0.5876 -2.760463,0.5374 -0.114392,-0.5877 1.028362,-0.2001 -0.561809,-2.8861 z"
           style="fill:url(#linearGradient4218);stroke:url(#linearGradient4220);stroke-width:0.1123599"
           id="path3932"
           inkscape:connector-curvature="0" />
      </g>
      <path
         sodipodi:type="arc"
         style="color:#000000;fill:none;stroke:none;stroke-width:1px;marker:none;visibility:visible;display:inline;overflow:visible;enable-background:accumulate"
         id="path3839"
         sodipodi:cx="375"
         sodipodi:cy="526.64789"
         sodipodi:rx="315"
         sodipodi:ry="301.42856"
         d="M 370.56414,828.04656 C 196.61169,825.70225 57.581375,688.86103 60.031235,522.40314 62.481095,355.94525 205.48342,222.90491 379.43586,225.24922 c 173.95245,2.34431 312.98277,139.18553 310.53291,305.64342 -2.44978,166.45234 -145.44303,299.49051 -319.3898,297.15412"
         transform="matrix(0.91104497,0,0,0.95206359,8.807488,186.36841)"
         sodipodi:start="1.5848789"
         sodipodi:end="7.8680171"
         sodipodi:open="true" />
      <path
         style="fill:url(#linearGradient3803);fill-opacity:1;stroke:none"
         d="m 21.711326,1025.8694 c -0.100293,-0.069 -0.180546,-0.2087 -0.180546,-0.3132 0,-0.2564 0.876292,-1.2303 1.384271,-1.5386 0.121421,-0.073 0.240103,-0.1949 0.263736,-0.2694 0.02363,-0.074 0.170953,-0.1961 0.32738,-0.2703 0.156424,-0.074 0.263133,-0.1563 0.237126,-0.1823 -0.02601,-0.026 0.0416,-0.1055 0.150241,-0.1768 0.108638,-0.072 0.382486,-0.374 0.608552,-0.6726 0.226066,-0.2985 0.489531,-0.5797 0.585479,-0.6248 0.09595,-0.045 0.311389,-0.2777 0.478763,-0.517 0.167374,-0.2395 0.335597,-0.4353 0.373827,-0.4353 0.05653,0 1.05784,-1.1066 1.270539,-1.4042 0.264123,-0.3695 0.808149,-1.2501 0.892308,-1.4444 0.05736,-0.1323 0.136845,-0.6018 0.17663,-1.0431 0.08575,-0.9511 0.104978,-24.2435 0.02368,-28.66124 -0.03101,-1.6852 -0.08525,-3.1107 -0.12053,-3.16778 -0.04919,-0.0797 -0.21932,-0.0273 -0.730157,0.22457 -0.366308,0.18059 -0.761613,0.35108 -0.878453,0.37884 l -0.212438,0.0505 -0.0285,15.90851 -0.0285,15.9085 -0.262852,0.4551 c -0.223628,0.3872 -0.450009,0.6317 -0.949612,1.0253 -0.04922,0.039 -0.265879,0.1474 -0.481449,0.2412 -0.215572,0.094 -0.554438,0.2597 -0.753034,0.3681 -0.574609,0.3139 -1.734124,0.8726 -3.731234,1.798 -0.397195,0.1839 -0.794392,0.3753 -0.882658,0.425 -0.08827,0.05 -0.341024,0.1886 -0.56169,0.3082 -0.220664,0.1197 -0.615735,0.3476 -0.877937,0.5065 -0.2622,0.159 -0.509746,0.289 -0.550107,0.289 -0.04036,0 -0.180661,0.09 -0.311782,0.2006 -0.131122,0.1103 -0.288003,0.2006 -0.348625,0.2006 -0.06061,0 -0.146117,0.063 -0.189994,0.1404 -0.06681,0.1176 -0.105968,0.1244 -0.240992,0.042 -0.10164,-0.063 -0.179192,-0.069 -0.209865,-0.019 -0.02902,0.047 -0.126641,0.023 -0.241923,-0.062 -0.159158,-0.1158 -0.193719,-0.2118 -0.195795,-0.5439 -0.0018,-0.2837 0.0392,-0.4422 0.1379,-0.5338 0.07723,-0.072 0.284859,-0.331 0.461391,-0.5766 0.176531,-0.2455 0.380996,-0.4672 0.454362,-0.4926 0.267306,-0.093 2.402779,-2.3041 2.510334,-2.5998 0.162423,-0.4463 0.285895,-1.6087 0.211786,-1.9938 -0.0361,-0.1876 -0.0371,-0.4945 -0.0022,-0.682 0.03487,-0.1875 0.06565,-6.5157 0.0684,-14.0623 l 0.005,-13.72152 -0.206055,-0.23272 c -0.213384,-0.24099 -0.841711,-0.44552 -1.376586,-0.44809 -0.199605,-9.8e-4 -0.260786,-0.036 -0.260786,-0.14941 0,-0.24398 0.241082,-0.65133 0.468749,-0.79205 0.117317,-0.0725 0.249413,-0.17211 0.293546,-0.22133 0.190333,-0.21227 0.812809,-0.44882 2.848576,-1.08251 0.595792,-0.18545 1.516562,-0.47507 2.046159,-0.64358 0.529594,-0.1685 1.08928,-0.33212 1.243745,-0.3636 0.154466,-0.0315 0.316953,-0.0859 0.361087,-0.12087 0.04412,-0.035 0.387164,-0.15891 0.762294,-0.27538 0.375129,-0.11646 1.133412,-0.35324 1.685072,-0.5262 0.551663,-0.17294 1.382163,-0.42846 1.845557,-0.56781 0.463394,-0.13935 1.293895,-0.39426 1.845555,-0.56648 0.55166,-0.17221 1.201619,-0.36993 1.444348,-0.43941 0.242732,-0.0695 0.504028,-0.1588 0.580662,-0.19854 0.07662,-0.0397 0.178247,-0.0722 0.225806,-0.0722 0.04756,0 0.27373,-0.0851 0.5026,-0.18904 0.228868,-0.10396 0.553263,-0.21425 0.720874,-0.24508 0.306381,-0.0564 1.402105,-0.39694 1.701293,-0.52881 0.08827,-0.0389 0.552091,-0.2016 1.030725,-0.36153 0.478631,-0.15994 0.966099,-0.32964 1.083262,-0.3771 0.117159,-0.0475 0.339396,-0.13716 0.493863,-0.19929 0.154466,-0.0622 0.343544,-0.14734 0.420178,-0.18933 0.07662,-0.042 0.189493,-0.0764 0.250801,-0.0764 0.235673,0 3.474414,-1.55657 3.942909,-1.895 0.405311,-0.2928 1.302031,-0.67275 1.587728,-0.67275 0.363788,0 0.923127,0.3812 1.327882,0.90497 0.306576,0.39672 1.513889,1.60754 2.661179,2.66889 0.286863,0.26539 0.903079,0.88258 1.369369,1.37154 0.466291,0.48897 0.88154,0.9033 0.922779,0.92072 0.04123,0.0174 0.180685,0.1873 0.30988,0.37751 0.129194,0.1902 0.299227,0.38024 0.377847,0.42233 0.07861,0.0421 0.31009,0.31073 0.514376,0.59701 0.204287,0.28629 0.401246,0.52052 0.437687,0.52052 0.0595,0 0.306764,0.31005 0.641833,0.80484 0.06619,0.0978 0.157215,0.21844 0.202257,0.2682 0.228695,0.25263 0.680398,0.83521 0.680398,0.87753 0,0.10606 0.430108,0.67458 0.725925,0.95952 0.17257,0.16622 0.407333,0.50001 0.521693,0.74177 0.11436,0.24173 0.360778,0.62931 0.547596,0.86127 0.472271,0.58641 0.852759,1.17021 0.852759,1.30844 0,0.064 0.03062,0.11635 0.06805,0.11635 0.03742,0 0.124205,0.1354 0.192835,0.30089 0.369531,0.89113 0.495827,1.21375 0.588955,1.50454 0.05653,0.17653 0.212241,0.62424 0.346008,0.99491 0.133769,0.37065 0.224122,0.70482 0.20079,0.74257 -0.02333,0.0378 0.02995,0.20389 0.118424,0.36921 0.234024,0.43731 0.372884,1.75724 0.356625,3.3899 -0.01832,1.83891 -0.08359,2.5826 -0.2371,2.701 -0.09984,0.077 -0.103083,0.1208 -0.01883,0.2558 0.07784,0.1246 0.08024,0.2064 0.01026,0.3484 -0.05031,0.102 -0.108252,0.3118 -0.128756,0.4663 -0.02051,0.1545 -0.09678,0.5878 -0.169508,0.9629 -0.07271,0.3751 -0.145698,0.7804 -0.162165,0.9004 -0.0564,0.4114 -0.09833,0.5286 -0.517196,1.4468 -0.135953,0.2981 -0.247185,0.5754 -0.247185,0.6162 0,0.041 -0.0465,0.122 -0.103346,0.1803 -0.05684,0.059 -0.167502,0.2506 -0.245915,0.4271 -0.215317,0.4847 -0.464202,0.9479 -0.585437,1.0895 -0.05964,0.07 -0.108442,0.162 -0.108442,0.2051 0,0.2235 -1.487451,2.2301 -2.166521,2.9227 -0.154465,0.1575 -0.407226,0.4418 -0.561691,0.6319 -0.510584,0.6281 -2.12009,2.2546 -2.487489,2.5138 -0.198598,0.1401 -0.451358,0.3348 -0.561692,0.4326 -0.286905,0.2543 -0.779369,0.628 -1.243742,0.9437 -0.220665,0.15 -0.586658,0.4296 -0.813318,0.6214 -0.226657,0.1916 -0.523329,0.4374 -0.659269,0.546 -0.13594,0.1085 -0.288782,0.298 -0.339649,0.4207 -0.0817,0.1973 -0.0703,0.2423 0.09757,0.3861 0.104536,0.09 0.334503,0.2392 0.511034,0.3325 0.379478,0.2006 1.009709,0.6226 1.123382,0.7522 0.04412,0.05 0.367877,0.3228 0.719434,0.6053 0.351555,0.2827 0.92256,0.7579 1.268899,1.0562 l 0.629707,0.5424 0.59198,0 c 0.325591,0 0.614797,-0.037 0.642683,-0.082 0.02789,-0.045 0.255697,-0.1906 0.506247,-0.3232 0.742189,-0.3929 1.168031,-0.6385 1.214415,-0.7003 0.144684,-0.1929 0.86107,-0.6022 1.111281,-0.6349 0.356153,-0.047 0.722285,0.08 0.79408,0.2748 0.02875,0.078 0.07369,0.1597 0.09988,0.1817 0.116654,0.098 0.234134,0.4787 0.161678,0.5235 -0.04247,0.026 -0.07721,0.1364 -0.07721,0.2447 0,0.2201 -0.165266,0.341 -1.10332,0.8073 -0.319964,0.1591 -0.581751,0.3168 -0.581751,0.3505 0,0.033 -0.06319,0.082 -0.140424,0.1076 -0.183148,0.061 -0.715936,0.3659 -1.035752,0.5943 -0.139052,0.099 -0.283361,0.183 -0.320681,0.1859 -0.03732,0 -0.230344,0.1304 -0.428941,0.2833 -0.198599,0.1529 -0.460387,0.3209 -0.581752,0.3734 -0.121365,0.053 -0.220664,0.1235 -0.220664,0.158 0,0.034 -0.05116,0.063 -0.113677,0.063 -0.06251,0 -0.125711,0.027 -0.140421,0.061 -0.0147,0.033 -0.234375,0.1854 -0.488136,0.3378 -0.253763,0.1524 -0.461389,0.3055 -0.461389,0.3403 0,0.035 -0.03808,0.064 -0.08464,0.064 -0.04655,0 -0.25418,0.074 -0.461389,0.1648 -0.207209,0.091 -0.448963,0.1926 -0.537229,0.2264 -0.08827,0.034 -0.395189,0.1717 -0.682051,0.3064 -0.852472,0.4003 -1.1373,0.477 -2.385075,0.642 -0.330038,0.044 -1.883052,-0.1676 -2.253078,-0.3066 -0.278655,-0.1046 -1.012755,-0.7167 -1.224604,-1.0211 -0.288332,-0.4142 -0.942935,-1.0551 -1.077742,-1.0551 -0.06641,0 -0.120761,-0.03 -0.120761,-0.068 0,-0.07 -0.37221,-0.2384 -0.920054,-0.4144 -0.421167,-0.1352 -2.199521,-0.136 -2.52535,0 -0.322543,0.1337 -1.272784,0.076 -1.373353,-0.082 -0.04044,-0.064 -0.07407,-0.2382 -0.07474,-0.3874 -10e-4,-0.225 0.07505,-0.3444 0.447314,-0.702 0.246699,-0.2372 0.476513,-0.431 0.510697,-0.431 0.03419,0 0.184399,-0.1079 0.333815,-0.2395 0.149411,-0.1318 0.313784,-0.24 0.365272,-0.2407 0.05148,-7e-4 0.10565,-0.028 0.120361,-0.062 0.03136,-0.071 0.05161,-0.085 1.444161,-1.0179 0.588543,-0.3943 1.08813,-0.7374 1.110195,-0.7623 0.08625,-0.098 0.810961,-0.5669 0.87518,-0.5669 0.03743,0 0.112135,-0.053 0.16599,-0.118 0.05386,-0.065 0.422952,-0.3448 0.820206,-0.6218 0.397253,-0.2772 0.765358,-0.5401 0.818008,-0.5842 0.05266,-0.044 0.154435,-0.1164 0.226184,-0.1604 0.418459,-0.2575 1.014309,-0.6915 1.112621,-0.8105 0.06284,-0.076 0.348959,-0.2904 0.635823,-0.4761 0.286864,-0.1857 0.738222,-0.5292 1.00302,-0.7632 0.264796,-0.234 0.743237,-0.6192 1.0632,-0.856 0.319964,-0.2369 0.58175,-0.46 0.58175,-0.4957 0,-0.036 0.210491,-0.2783 0.467757,-0.5386 0.64985,-0.6576 1.809921,-2.1831 2.049438,-2.6952 0.109646,-0.2343 0.327733,-0.6067 0.484643,-0.8273 0.340497,-0.4788 0.689275,-1.1882 0.689275,-1.4017 0,-0.084 0.03824,-0.1771 0.08498,-0.2059 0.04674,-0.028 0.07748,-0.1304 0.0683,-0.2255 -0.0091,-0.095 0.0043,-0.2271 0.0299,-0.2934 0.02561,-0.067 0.06551,-0.2467 0.08867,-0.4011 0.02316,-0.1545 0.09946,-0.5516 0.169568,-0.8827 0.0701,-0.331 0.121948,-0.6469 0.11521,-0.7021 -0.01687,-0.1381 -0.0079,-1.07 0.02173,-2.2668 0.01367,-0.5517 8e-5,-1.0397 -0.03014,-1.0844 -0.03025,-0.045 -0.09129,-0.3156 -0.135667,-0.6019 -0.04436,-0.2862 -0.139266,-0.75519 -0.210882,-1.04207 -0.07161,-0.28685 -0.160109,-0.64794 -0.196651,-0.80241 -0.29763,-1.25804 -0.463644,-1.7252 -0.819926,-2.30732 -0.169661,-0.27719 -0.308472,-0.51887 -0.308472,-0.53709 0,-0.19477 -0.570858,-1.15768 -0.925983,-1.56195 -0.248636,-0.28304 -0.480932,-0.59055 -0.516218,-0.68336 -0.06083,-0.15999 -0.869544,-1.42077 -1.043737,-1.62717 -0.04498,-0.0533 -0.08179,-0.11665 -0.08179,-0.14079 0,-0.0842 -0.753944,-1.12869 -1.037917,-1.43805 -0.703799,-0.76672 -1.447512,-1.4913 -1.771807,-1.72622 -0.661188,-0.47896 -1.42347,-1.26745 -1.723922,-1.78315 -0.108802,-0.18677 -1.696168,-1.4474 -2.046159,-1.625 -0.397526,-0.20173 -0.608152,-0.32411 -0.733679,-0.4263 -0.05987,-0.0487 -0.320082,-0.20229 -0.578248,-0.34123 -0.258162,-0.13895 -0.552219,-0.35042 -0.653458,-0.46995 -0.217813,-0.25715 -1.3646,-0.84756 -2.488023,-1.28093 -1.411097,-0.54434 -1.379611,-0.53881 -2.011053,-0.35355 -0.306175,0.0898 -0.692085,0.18766 -0.857582,0.21741 -0.1655,0.0298 -0.309295,0.0591 -0.319546,0.0653 -0.01025,0.006 -0.03733,8.47729 -0.06018,18.82493 l -0.04154,18.8135 -0.200603,0.099 c -0.671266,0.3295 -0.896738,0.4292 -0.97034,0.4292 -0.0455,0 -0.270074,0.087 -0.499039,0.1927 -0.228965,0.106 -0.506571,0.2192 -0.616903,0.2517 -0.110332,0.032 -0.387862,0.1445 -0.616729,0.2487 -0.228871,0.1043 -0.449174,0.1896 -0.489559,0.1896 -0.04039,0 -0.234687,0.086 -0.431775,0.1905 -0.197088,0.1048 -0.446199,0.2181 -0.553581,0.2518 -0.239209,0.075 -0.891298,0.3613 -1.639588,0.7195 -0.308931,0.148 -0.651964,0.2952 -0.762296,0.3272 -0.110331,0.032 -0.450304,0.1796 -0.755498,0.3277 -0.305192,0.1483 -0.594062,0.2698 -0.641932,0.2701 -0.04786,3e-4 -0.412015,0.1621 -0.809212,0.3596 -0.397196,0.1974 -0.762223,0.3598 -0.81117,0.3606 -0.139655,0 -0.899413,0.4124 -1.519516,0.82 -0.310952,0.2044 -0.708149,0.3968 -0.882657,0.4274 -0.174507,0.03 -0.353534,0.1007 -0.397834,0.1556 -0.136731,0.1693 -0.39233,0.1993 -0.581443,0.068 l 0,0 z m 30.772637,-29.49417 c -0.03786,-0.11359 -0.166901,-0.1011 -0.207291,0.0201 -0.01471,0.0441 0.03343,0.0802 0.106988,0.0802 0.07355,0 0.118691,-0.0451 0.100303,-0.10031 z"
         id="path3131"
         inkscape:connector-curvature="0" />
    </g>
  </g>
</svg>
